<svg width="1275" height="200" viewBox="0 0 1275 200" fill="none" xmlns="http://www.w3.org/2000/svg">
    <path fill-rule="evenodd" clip-rule="evenodd" d="M134.225 22.3708C134.225 26.4455 133.135 30.2657 131.232 33.5562H178.966C191.321 33.5562 201.337 43.5719 201.337 55.927V163.307C201.337 175.662 191.321 185.678 178.966 185.678H22.3708C10.0157 185.678 0 175.662 0 163.307V55.927C0 43.5719 10.0157 33.5562 22.3708 33.5562H70.1052C68.2018 30.2657 67.1124 26.4455 67.1124 22.3708C67.1124 10.0157 77.1281 0 89.4832 0H111.854C124.209 0 134.225 10.0157 134.225 22.3708ZM89.4832 33.5562C83.3056 33.5562 78.2978 28.5483 78.2978 22.3708C78.2978 16.1933 83.3056 11.1854 89.4832 11.1854H111.854C118.031 11.1854 123.039 16.1933 123.039 22.3708C123.039 28.5483 118.031 33.5562 111.854 33.5562H89.4832ZM178.966 44.7416H162.188V174.492H178.966C185.144 174.492 190.152 169.484 190.152 163.307V55.927C190.152 49.7495 185.144 44.7416 178.966 44.7416ZM50.3343 44.7416H151.003V174.492H50.3343V44.7416ZM22.3708 174.492H39.1489V44.7416H22.3708C16.1933 44.7416 11.1854 49.7495 11.1854 55.927V163.307C11.1854 169.484 16.1933 174.492 22.3708 174.492Z" fill="url(#paint0_linear_69_13)"/>
    <path fill-rule="evenodd" clip-rule="evenodd" d="M134.225 22.3708C134.225 26.4455 133.135 30.2657 131.232 33.5562H178.966C191.321 33.5562 201.337 43.5719 201.337 55.927V163.307C201.337 175.662 191.321 185.678 178.966 185.678H22.3708C10.0157 185.678 0 175.662 0 163.307V55.927C0 43.5719 10.0157 33.5562 22.3708 33.5562H70.1052C68.2018 30.2657 67.1124 26.4455 67.1124 22.3708C67.1124 10.0157 77.1281 0 89.4832 0H111.854C124.209 0 134.225 10.0157 134.225 22.3708ZM89.4832 33.5562C83.3056 33.5562 78.2978 28.5483 78.2978 22.3708C78.2978 16.1933 83.3056 11.1854 89.4832 11.1854H111.854C118.031 11.1854 123.039 16.1933 123.039 22.3708C123.039 28.5483 118.031 33.5562 111.854 33.5562H89.4832ZM178.966 44.7416H162.188V174.492H178.966C185.144 174.492 190.152 169.484 190.152 163.307V55.927C190.152 49.7495 185.144 44.7416 178.966 44.7416ZM50.3343 44.7416H151.003V174.492H50.3343V44.7416ZM22.3708 174.492H39.1489V44.7416H22.3708C16.1933 44.7416 11.1854 49.7495 11.1854 55.927V163.307C11.1854 169.484 16.1933 174.492 22.3708 174.492Z" fill="#C8102E" fill-opacity="0.33"/>
    <path fill-rule="evenodd" clip-rule="evenodd" d="M333.349 24.5973C326.256 21.9075 318.446 20.693 310.115 20.693C298.103 20.693 286.98 23.5533 277.052 29.4779C267.066 35.3903 259.404 44.0287 253.971 54.8955L253.946 54.9446L253.922 54.9938C248.547 66.0136 246.079 78.6727 246.079 92.6151C246.079 106.812 248.463 119.648 253.684 130.76L253.719 130.834L253.754 130.907C259.082 141.83 266.714 150.507 276.736 156.435C286.668 162.31 298.041 165.04 310.451 165.04C319.353 165.04 327.767 163.374 335.514 159.859C342.873 156.57 349.346 152.254 354.768 146.832L361.745 139.855L336.699 107.603L327.9 114.203C324.349 116.866 321.268 118.774 318.642 120.059C316.806 120.866 314.579 121.362 311.793 121.362C307.351 121.362 304.474 119.86 302.032 116.451C299.444 112.57 297.308 105.209 297.308 92.6151C297.308 79.7129 299.473 72.2572 302.057 68.4072C304.608 64.7623 307.425 63.3653 311.457 63.3653C313.913 63.3653 316.075 63.7922 318.041 64.5786C320.252 65.463 322.768 66.8992 325.583 69.0779L334.088 75.6627L361.251 43.2762L352.733 36.0838C346.806 31.0788 340.343 27.2077 333.349 24.5973ZM332.43 60.2334C328.962 57.5489 325.551 55.5355 322.195 54.1932C318.84 52.851 315.26 52.1799 311.457 52.1799C303.628 52.1799 297.42 55.4796 292.834 62.0789C288.359 68.6783 286.122 78.857 286.122 92.6151C286.122 106.149 288.359 116.216 292.834 122.816C297.42 129.303 303.739 132.547 311.793 132.547C316.043 132.547 319.902 131.764 323.37 130.198C326.837 128.52 330.584 126.171 334.611 123.151L346.859 138.923C342.497 143.285 337.184 146.864 330.92 149.661C324.768 152.457 317.945 153.855 310.451 153.855C299.713 153.855 290.373 151.506 282.431 146.808C274.49 142.11 268.282 135.175 263.808 126.003C259.445 116.72 257.264 105.59 257.264 92.6151C257.264 79.9756 259.501 69.0698 263.975 59.8978C268.561 50.7258 274.825 43.7908 282.767 39.0929C290.82 34.2832 299.936 31.8784 310.115 31.8784C317.386 31.8784 323.817 32.941 329.41 35.0662C331.758 35.9411 334.05 36.9961 336.285 38.2312C339.362 39.9318 342.331 41.9738 345.192 44.3572C345.3 44.4476 345.409 44.5384 345.517 44.6297L332.43 60.2334Z" fill="url(#paint1_linear_69_13)"/>
    <path fill-rule="evenodd" clip-rule="evenodd" d="M333.349 24.5973C326.256 21.9075 318.446 20.693 310.115 20.693C298.103 20.693 286.98 23.5533 277.052 29.4779C267.066 35.3903 259.404 44.0287 253.971 54.8955L253.946 54.9446L253.922 54.9938C248.547 66.0136 246.079 78.6727 246.079 92.6151C246.079 106.812 248.463 119.648 253.684 130.76L253.719 130.834L253.754 130.907C259.082 141.83 266.714 150.507 276.736 156.435C286.668 162.31 298.041 165.04 310.451 165.04C319.353 165.04 327.767 163.374 335.514 159.859C342.873 156.57 349.346 152.254 354.768 146.832L361.745 139.855L336.699 107.603L327.9 114.203C324.349 116.866 321.268 118.774 318.642 120.059C316.806 120.866 314.579 121.362 311.793 121.362C307.351 121.362 304.474 119.86 302.032 116.451C299.444 112.57 297.308 105.209 297.308 92.6151C297.308 79.7129 299.473 72.2572 302.057 68.4072C304.608 64.7623 307.425 63.3653 311.457 63.3653C313.913 63.3653 316.075 63.7922 318.041 64.5786C320.252 65.463 322.768 66.8992 325.583 69.0779L334.088 75.6627L361.251 43.2762L352.733 36.0838C346.806 31.0788 340.343 27.2077 333.349 24.5973ZM332.43 60.2334C328.962 57.5489 325.551 55.5355 322.195 54.1932C318.84 52.851 315.26 52.1799 311.457 52.1799C303.628 52.1799 297.42 55.4796 292.834 62.0789C288.359 68.6783 286.122 78.857 286.122 92.6151C286.122 106.149 288.359 116.216 292.834 122.816C297.42 129.303 303.739 132.547 311.793 132.547C316.043 132.547 319.902 131.764 323.37 130.198C326.837 128.52 330.584 126.171 334.611 123.151L346.859 138.923C342.497 143.285 337.184 146.864 330.92 149.661C324.768 152.457 317.945 153.855 310.451 153.855C299.713 153.855 290.373 151.506 282.431 146.808C274.49 142.11 268.282 135.175 263.808 126.003C259.445 116.72 257.264 105.59 257.264 92.6151C257.264 79.9756 259.501 69.0698 263.975 59.8978C268.561 50.7258 274.825 43.7908 282.767 39.0929C290.82 34.2832 299.936 31.8784 310.115 31.8784C317.386 31.8784 323.817 32.941 329.41 35.0662C331.758 35.9411 334.05 36.9961 336.285 38.2312C339.362 39.9318 342.331 41.9738 345.192 44.3572C345.3 44.4476 345.409 44.5384 345.517 44.6297L332.43 60.2334Z" fill="#C8102E" fill-opacity="0.33"/>
    <path d="M415.386 110.568C413.724 110.568 412.177 110.648 410.744 110.809C406.968 111.233 403.985 112.215 401.796 113.755C398.887 115.881 397.433 119.18 397.433 123.655C397.433 127.234 398.328 130.03 400.118 132.044C402.019 133.945 404.592 134.896 407.836 134.896C413.876 134.896 418.574 132.044 421.929 126.339V110.568H415.386Z" fill="url(#paint2_linear_69_13)"/>
    <path d="M415.386 110.568C413.724 110.568 412.177 110.648 410.744 110.809C406.968 111.233 403.985 112.215 401.796 113.755C398.887 115.881 397.433 119.18 397.433 123.655C397.433 127.234 398.328 130.03 400.118 132.044C402.019 133.945 404.592 134.896 407.836 134.896C413.876 134.896 418.574 132.044 421.929 126.339V110.568H415.386Z" fill="#C8102E" fill-opacity="0.33"/>
    <path fill-rule="evenodd" clip-rule="evenodd" d="M375.597 94.3951C375.498 94.4649 375.4 94.5352 375.301 94.6059C364.883 102.094 359.906 113.106 359.906 126.003C359.906 136.876 363.469 146.61 371.154 154.131C378.91 161.723 388.984 165.04 400.118 165.04C410.054 165.04 418.927 162.534 426.167 157.32C427.181 158.109 428.258 158.839 429.4 159.501L429.518 159.57L429.638 159.636C434.911 162.528 441.053 163.971 447.529 164.5L456.381 165.223L467.897 129.279L459.137 126.052C459.127 125.789 459.121 125.494 459.121 125.165V90.6017C459.121 77.9917 455.504 66.5921 446.464 58.5758C437.559 50.6786 424.937 47.8735 411.023 47.8735C405.173 47.8735 398.989 48.5222 392.507 49.7452L392.488 49.7489L392.469 49.7526C386.011 50.9943 379.685 52.794 373.494 55.1464L363.346 59.0026L375.597 94.3951ZM394.581 60.7367C400.509 59.6182 405.99 59.0589 411.023 59.0589C423.775 59.0589 433.115 61.6875 439.043 66.9446C444.971 72.2017 447.935 80.0874 447.935 90.6017V125.165C447.935 128.52 448.383 130.981 449.278 132.547C450.284 134.113 451.85 135.287 453.975 136.07L448.439 153.352C442.958 152.904 438.484 151.73 435.016 149.828C434.777 149.69 434.542 149.546 434.31 149.396C431.182 147.378 428.733 144.39 426.963 140.433C424.699 143.915 421.962 146.719 418.75 148.846C413.708 152.185 407.497 153.855 400.118 153.855C391.281 153.855 384.234 151.282 378.977 146.137C373.72 140.992 371.092 134.281 371.092 126.003C371.092 116.272 374.671 108.834 381.83 103.689C388.988 98.5433 399.335 95.9707 412.869 95.9707H421.929V92.1117C421.929 89.1298 421.569 86.6876 420.85 84.7853C420.3 83.3339 419.542 82.1967 418.574 81.3737C416.337 79.3604 412.422 78.3537 406.829 78.3537C403.921 78.3537 400.397 78.8011 396.259 79.6959C392.12 80.4789 387.87 81.5975 383.507 83.0516L377.467 65.6023C379.42 64.8602 381.387 64.1795 383.367 63.5601C384.944 63.0667 386.53 62.6123 388.125 62.1969C390.261 61.6403 392.413 61.1535 394.581 60.7367Z" fill="url(#paint3_linear_69_13)"/>
    <path fill-rule="evenodd" clip-rule="evenodd" d="M375.597 94.3951C375.498 94.4649 375.4 94.5352 375.301 94.6059C364.883 102.094 359.906 113.106 359.906 126.003C359.906 136.876 363.469 146.61 371.154 154.131C378.91 161.723 388.984 165.04 400.118 165.04C410.054 165.04 418.927 162.534 426.167 157.32C427.181 158.109 428.258 158.839 429.4 159.501L429.518 159.57L429.638 159.636C434.911 162.528 441.053 163.971 447.529 164.5L456.381 165.223L467.897 129.279L459.137 126.052C459.127 125.789 459.121 125.494 459.121 125.165V90.6017C459.121 77.9917 455.504 66.5921 446.464 58.5758C437.559 50.6786 424.937 47.8735 411.023 47.8735C405.173 47.8735 398.989 48.5222 392.507 49.7452L392.488 49.7489L392.469 49.7526C386.011 50.9943 379.685 52.794 373.494 55.1464L363.346 59.0026L375.597 94.3951ZM394.581 60.7367C400.509 59.6182 405.99 59.0589 411.023 59.0589C423.775 59.0589 433.115 61.6875 439.043 66.9446C444.971 72.2017 447.935 80.0874 447.935 90.6017V125.165C447.935 128.52 448.383 130.981 449.278 132.547C450.284 134.113 451.85 135.287 453.975 136.07L448.439 153.352C442.958 152.904 438.484 151.73 435.016 149.828C434.777 149.69 434.542 149.546 434.31 149.396C431.182 147.378 428.733 144.39 426.963 140.433C424.699 143.915 421.962 146.719 418.75 148.846C413.708 152.185 407.497 153.855 400.118 153.855C391.281 153.855 384.234 151.282 378.977 146.137C373.72 140.992 371.092 134.281 371.092 126.003C371.092 116.272 374.671 108.834 381.83 103.689C388.988 98.5433 399.335 95.9707 412.869 95.9707H421.929V92.1117C421.929 89.1298 421.569 86.6876 420.85 84.7853C420.3 83.3339 419.542 82.1967 418.574 81.3737C416.337 79.3604 412.422 78.3537 406.829 78.3537C403.921 78.3537 400.397 78.8011 396.259 79.6959C392.12 80.4789 387.87 81.5975 383.507 83.0516L377.467 65.6023C379.42 64.8602 381.387 64.1795 383.367 63.5601C384.944 63.0667 386.53 62.6123 388.125 62.1969C390.261 61.6403 392.413 61.1535 394.581 60.7367Z" fill="#C8102E" fill-opacity="0.33"/>
    <path fill-rule="evenodd" clip-rule="evenodd" d="M551.313 99.8508L559.033 52.6028L549.53 49.8309C545.68 48.7082 541.644 48.2091 537.505 48.2091C532.045 48.2091 526.961 49.5461 522.368 52.0492L522.201 50.7258H477.999V162.188H526.879V108.109C528.241 102.237 529.8 98.9459 531.003 97.3324C531.377 96.8413 531.89 96.2503 534.15 96.2503C534.914 96.2503 536.64 96.4271 539.662 97.1322L551.313 99.8508ZM489.185 151.003V61.9112H512.338L514.519 79.1926C516.533 73.0406 519.553 68.2309 523.58 64.7634C523.697 64.6615 523.816 64.5611 523.934 64.462C527.361 61.6024 531.129 59.953 535.236 59.5139C535.982 59.4343 536.738 59.3945 537.505 59.3945C538.194 59.3945 538.871 59.4121 539.534 59.4474C541.996 59.5784 544.283 59.9522 546.398 60.5689L542.203 86.2394C539.409 85.5874 537.08 85.2069 535.217 85.0978C534.842 85.0759 534.487 85.0649 534.15 85.0649C528.893 85.0649 524.866 86.9105 522.07 90.6017C519.385 94.181 517.26 99.6059 515.694 106.876V151.003H489.185Z" fill="url(#paint4_linear_69_13)"/>
    <path fill-rule="evenodd" clip-rule="evenodd" d="M551.313 99.8508L559.033 52.6028L549.53 49.8309C545.68 48.7082 541.644 48.2091 537.505 48.2091C532.045 48.2091 526.961 49.5461 522.368 52.0492L522.201 50.7258H477.999V162.188H526.879V108.109C528.241 102.237 529.8 98.9459 531.003 97.3324C531.377 96.8413 531.89 96.2503 534.15 96.2503C534.914 96.2503 536.64 96.4271 539.662 97.1322L551.313 99.8508ZM489.185 151.003V61.9112H512.338L514.519 79.1926C516.533 73.0406 519.553 68.2309 523.58 64.7634C523.697 64.6615 523.816 64.5611 523.934 64.462C527.361 61.6024 531.129 59.953 535.236 59.5139C535.982 59.4343 536.738 59.3945 537.505 59.3945C538.194 59.3945 538.871 59.4121 539.534 59.4474C541.996 59.5784 544.283 59.9522 546.398 60.5689L542.203 86.2394C539.409 85.5874 537.08 85.2069 535.217 85.0978C534.842 85.0759 534.487 85.0649 534.15 85.0649C528.893 85.0649 524.866 86.9105 522.07 90.6017C519.385 94.181 517.26 99.6059 515.694 106.876V151.003H489.185Z" fill="#C8102E" fill-opacity="0.33"/>
    <path d="M621.947 87.1342C619.917 80.162 615.544 76.6759 608.828 76.6759C604.242 76.6759 600.663 78.3537 598.09 81.7093C597.05 83.1278 596.179 84.9361 595.479 87.1342C594.522 90.1359 593.883 93.8643 593.56 98.3196H623.257V97.1452C623.193 93.2532 622.757 89.9162 621.947 87.1342Z" fill="url(#paint5_linear_69_13)"/>
    <path d="M621.947 87.1342C619.917 80.162 615.544 76.6759 608.828 76.6759C604.242 76.6759 600.663 78.3537 598.09 81.7093C597.05 83.1278 596.179 84.9361 595.479 87.1342C594.522 90.1359 593.883 93.8643 593.56 98.3196H623.257V97.1452C623.193 93.2532 622.757 89.9162 621.947 87.1342Z" fill="#C8102E" fill-opacity="0.33"/>
    <path fill-rule="evenodd" clip-rule="evenodd" d="M648.167 125.444H658.634L659.859 115.646C660.268 112.37 660.449 108.696 660.449 104.695C660.449 88.5126 656.314 74.3371 646.66 63.6437C636.874 52.8036 623.543 47.8735 608.157 47.8735C597.568 47.8735 587.826 50.4751 579.451 56.1402C571.337 61.5167 565.256 68.9065 561.209 77.9658C557.226 86.7712 555.362 96.4796 555.362 106.876C555.362 123.258 559.825 137.589 569.843 148.622C580.201 160.031 594.629 165.04 611.345 165.04C626.74 165.04 640.749 159.972 653.04 150.192L661.484 143.473L648.167 125.444ZM571.413 82.5482C574.657 75.2777 579.41 69.5732 585.674 65.4346C591.938 61.1841 599.432 59.0589 608.157 59.0589C621.02 59.0589 631.087 63.0856 638.357 71.1391C645.628 79.1926 649.263 90.378 649.263 104.695C649.263 108.386 649.095 111.574 648.76 114.259H593.56C594.104 118.814 595.102 122.542 596.555 125.444C597.493 127.317 598.619 128.846 599.936 130.03C603.291 133.05 607.933 134.56 613.861 134.56C617.441 134.56 620.908 133.945 624.264 132.715C627.62 131.372 631.255 129.359 635.17 126.675L646.075 141.439C644.842 142.421 643.592 143.344 642.325 144.209C640.492 145.462 638.623 146.592 636.721 147.601C628.854 151.77 620.395 153.855 611.345 153.855C596.916 153.855 585.842 149.605 578.124 141.104C570.406 132.603 566.547 121.194 566.547 106.876C566.547 97.8163 568.169 89.7069 571.413 82.5482Z" fill="url(#paint6_linear_69_13)"/>
    <path fill-rule="evenodd" clip-rule="evenodd" d="M648.167 125.444H658.634L659.859 115.646C660.268 112.37 660.449 108.696 660.449 104.695C660.449 88.5126 656.314 74.3371 646.66 63.6437C636.874 52.8036 623.543 47.8735 608.157 47.8735C597.568 47.8735 587.826 50.4751 579.451 56.1402C571.337 61.5167 565.256 68.9065 561.209 77.9658C557.226 86.7712 555.362 96.4796 555.362 106.876C555.362 123.258 559.825 137.589 569.843 148.622C580.201 160.031 594.629 165.04 611.345 165.04C626.74 165.04 640.749 159.972 653.04 150.192L661.484 143.473L648.167 125.444ZM571.413 82.5482C574.657 75.2777 579.41 69.5732 585.674 65.4346C591.938 61.1841 599.432 59.0589 608.157 59.0589C621.02 59.0589 631.087 63.0856 638.357 71.1391C645.628 79.1926 649.263 90.378 649.263 104.695C649.263 108.386 649.095 111.574 648.76 114.259H593.56C594.104 118.814 595.102 122.542 596.555 125.444C597.493 127.317 598.619 128.846 599.936 130.03C603.291 133.05 607.933 134.56 613.861 134.56C617.441 134.56 620.908 133.945 624.264 132.715C627.62 131.372 631.255 129.359 635.17 126.675L646.075 141.439C644.842 142.421 643.592 143.344 642.325 144.209C640.492 145.462 638.623 146.592 636.721 147.601C628.854 151.77 620.395 153.855 611.345 153.855C596.916 153.855 585.842 149.605 578.124 141.104C570.406 132.603 566.547 121.194 566.547 106.876C566.547 97.8163 568.169 89.7069 571.413 82.5482Z" fill="#C8102E" fill-opacity="0.33"/>
    <path d="M734.655 87.1342C732.625 80.162 728.252 76.6759 721.536 76.6759C716.95 76.6759 713.371 78.3537 710.798 81.7093C709.758 83.1278 708.888 84.9361 708.187 87.1342C707.231 90.1359 706.591 93.8643 706.268 98.3196H735.965V97.1452C735.901 93.2532 735.465 89.9162 734.655 87.1342Z" fill="url(#paint7_linear_69_13)"/>
    <path d="M734.655 87.1342C732.625 80.162 728.252 76.6759 721.536 76.6759C716.95 76.6759 713.371 78.3537 710.798 81.7093C709.758 83.1278 708.888 84.9361 708.187 87.1342C707.231 90.1359 706.591 93.8643 706.268 98.3196H735.965V97.1452C735.901 93.2532 735.465 89.9162 734.655 87.1342Z" fill="#C8102E" fill-opacity="0.33"/>
    <path fill-rule="evenodd" clip-rule="evenodd" d="M760.875 125.444H771.342L772.567 115.646C772.977 112.37 773.157 108.696 773.157 104.695C773.157 88.5126 769.022 74.3371 759.368 63.6437C749.582 52.8036 736.252 47.8735 720.865 47.8735C710.277 47.8735 700.534 50.4751 692.159 56.1402C684.045 61.5167 677.964 68.9065 673.917 77.9658C669.934 86.7712 668.07 96.4796 668.07 106.876C668.07 123.258 672.533 137.589 682.551 148.622C692.909 160.031 707.337 165.04 724.053 165.04C739.448 165.04 753.457 159.972 765.748 150.192L774.192 143.473L760.875 125.444ZM684.121 82.5482C687.365 75.2777 692.119 69.5732 698.382 65.4346C704.646 61.1841 712.14 59.0589 720.865 59.0589C733.728 59.0589 743.795 63.0856 751.066 71.1391C758.336 79.1926 761.971 90.378 761.971 104.695C761.971 108.386 761.804 111.574 761.468 114.259H706.268C706.812 118.814 707.81 122.542 709.263 125.444C710.201 127.317 711.328 128.846 712.644 130.03C715.999 133.05 720.641 134.56 726.57 134.56C730.149 134.56 733.616 133.945 736.972 132.715C740.328 131.372 743.963 129.359 747.878 126.675L758.784 141.439C757.55 142.421 756.3 143.344 755.034 144.209C753.2 145.462 751.332 146.592 749.429 147.601C741.562 151.77 733.103 153.855 724.053 153.855C709.624 153.855 698.55 149.605 690.832 141.104C683.114 132.603 679.255 121.194 679.255 106.876C679.255 97.8163 680.877 89.7069 684.121 82.5482Z" fill="url(#paint8_linear_69_13)"/>
    <path fill-rule="evenodd" clip-rule="evenodd" d="M760.875 125.444H771.342L772.567 115.646C772.977 112.37 773.157 108.696 773.157 104.695C773.157 88.5126 769.022 74.3371 759.368 63.6437C749.582 52.8036 736.252 47.8735 720.865 47.8735C710.277 47.8735 700.534 50.4751 692.159 56.1402C684.045 61.5167 677.964 68.9065 673.917 77.9658C669.934 86.7712 668.07 96.4796 668.07 106.876C668.07 123.258 672.533 137.589 682.551 148.622C692.909 160.031 707.337 165.04 724.053 165.04C739.448 165.04 753.457 159.972 765.748 150.192L774.192 143.473L760.875 125.444ZM684.121 82.5482C687.365 75.2777 692.119 69.5732 698.382 65.4346C704.646 61.1841 712.14 59.0589 720.865 59.0589C733.728 59.0589 743.795 63.0856 751.066 71.1391C758.336 79.1926 761.971 90.378 761.971 104.695C761.971 108.386 761.804 111.574 761.468 114.259H706.268C706.812 118.814 707.81 122.542 709.263 125.444C710.201 127.317 711.328 128.846 712.644 130.03C715.999 133.05 720.641 134.56 726.57 134.56C730.149 134.56 733.616 133.945 736.972 132.715C740.328 131.372 743.963 129.359 747.878 126.675L758.784 141.439C757.55 142.421 756.3 143.344 755.034 144.209C753.2 145.462 751.332 146.592 749.429 147.601C741.562 151.77 733.103 153.855 724.053 153.855C709.624 153.855 698.55 149.605 690.832 141.104C683.114 132.603 679.255 121.194 679.255 106.876C679.255 97.8163 680.877 89.7069 684.121 82.5482Z" fill="#C8102E" fill-opacity="0.33"/>
    <path fill-rule="evenodd" clip-rule="evenodd" d="M866.846 52.6028L859.125 99.8508L847.474 97.1322C844.452 96.4271 842.726 96.2503 841.962 96.2503C839.699 96.2503 839.188 96.843 838.814 97.3346C837.612 98.9489 836.052 102.24 834.692 108.109V162.188H785.812V50.7258H830.013L830.18 52.0492C834.773 49.5461 839.857 48.2091 845.318 48.2091C849.456 48.2091 853.493 48.7082 857.342 49.8309L866.846 52.6028ZM796.997 61.9112V151.003H823.506V106.876C825.072 99.6059 827.197 94.181 829.882 90.6017C832.678 86.9105 836.705 85.0649 841.962 85.0649C842.299 85.0649 842.655 85.0759 843.029 85.0978C844.893 85.2069 847.222 85.5874 850.016 86.2394L854.21 60.5689C852.096 59.9522 849.808 59.5784 847.347 59.4474C846.683 59.4121 846.007 59.3945 845.318 59.3945C844.55 59.3945 843.794 59.4343 843.049 59.5139C838.941 59.953 835.174 61.6024 831.747 64.462L831.697 64.5034L831.633 64.5572L831.539 64.6371L831.47 64.6961L831.392 64.7634C827.365 68.2309 824.345 73.0406 822.332 79.1926L820.151 61.9112H796.997Z" fill="url(#paint9_linear_69_13)"/>
    <path fill-rule="evenodd" clip-rule="evenodd" d="M866.846 52.6028L859.125 99.8508L847.474 97.1322C844.452 96.4271 842.726 96.2503 841.962 96.2503C839.699 96.2503 839.188 96.843 838.814 97.3346C837.612 98.9489 836.052 102.24 834.692 108.109V162.188H785.812V50.7258H830.013L830.18 52.0492C834.773 49.5461 839.857 48.2091 845.318 48.2091C849.456 48.2091 853.493 48.7082 857.342 49.8309L866.846 52.6028ZM796.997 61.9112V151.003H823.506V106.876C825.072 99.6059 827.197 94.181 829.882 90.6017C832.678 86.9105 836.705 85.0649 841.962 85.0649C842.299 85.0649 842.655 85.0759 843.029 85.0978C844.893 85.2069 847.222 85.5874 850.016 86.2394L854.21 60.5689C852.096 59.9522 849.808 59.5784 847.347 59.4474C846.683 59.4121 846.007 59.3945 845.318 59.3945C844.55 59.3945 843.794 59.4343 843.049 59.5139C838.941 59.953 835.174 61.6024 831.747 64.462L831.697 64.5034L831.633 64.5572L831.539 64.6371L831.47 64.6961L831.392 64.7634C827.365 68.2309 824.345 73.0406 822.332 79.1926L820.151 61.9112H796.997Z" fill="#C8102E" fill-opacity="0.33"/>
    <path d="M983.626 54.7605C988.484 55.0188 992.641 56.0601 996.098 57.8844C1000.12 59.8978 1003.31 63.6449 1005.66 69.1257C1008.01 74.6066 1009.18 82.3245 1009.18 92.2795C1009.18 106.821 1006.84 116.943 1002.14 122.648C997.815 127.795 991.644 130.573 983.626 130.984C982.932 131.019 982.223 131.037 981.501 131.037H972.441V54.6966H981.165C982.005 54.6966 982.825 54.7179 983.626 54.7605Z" fill="url(#paint10_linear_69_13)"/>
    <path d="M983.626 54.7605C988.484 55.0188 992.641 56.0601 996.098 57.8844C1000.12 59.8978 1003.31 63.6449 1005.66 69.1257C1008.01 74.6066 1009.18 82.3245 1009.18 92.2795C1009.18 106.821 1006.84 116.943 1002.14 122.648C997.815 127.795 991.644 130.573 983.626 130.984C982.932 131.019 982.223 131.037 981.501 131.037H972.441V54.6966H981.165C982.005 54.6966 982.825 54.7179 983.626 54.7605Z" fill="#C8102E" fill-opacity="0.33"/>
    <path fill-rule="evenodd" clip-rule="evenodd" d="M1028.68 146.575L1028.65 146.597C1015.48 157.297 998.88 162.188 979.823 162.188H933.739V23.5453H977.306C997.154 23.5453 1014.34 28.0507 1027.79 38.182C1043.05 49.4703 1048.89 68.9668 1048.89 92.2795C1048.89 115.354 1043.18 134.641 1028.71 146.553L1028.68 146.575ZM1021.1 47.1464C1010.14 38.8693 995.539 34.7307 977.306 34.7307H944.925V151.003H979.823C996.937 151.003 1010.86 146.641 1021.6 137.916C1032.34 129.079 1037.71 113.867 1037.71 92.2795C1037.71 70.3561 1032.17 55.3118 1021.1 47.1464Z" fill="url(#paint11_linear_69_13)"/>
    <path fill-rule="evenodd" clip-rule="evenodd" d="M1028.68 146.575L1028.65 146.597C1015.48 157.297 998.88 162.188 979.823 162.188H933.739V23.5453H977.306C997.154 23.5453 1014.34 28.0507 1027.79 38.182C1043.05 49.4703 1048.89 68.9668 1048.89 92.2795C1048.89 115.354 1043.18 134.641 1028.71 146.553L1028.68 146.575ZM1021.1 47.1464C1010.14 38.8693 995.539 34.7307 977.306 34.7307H944.925V151.003H979.823C996.937 151.003 1010.86 146.641 1021.6 137.916C1032.34 129.079 1037.71 113.867 1037.71 92.2795C1037.71 70.3561 1032.17 55.3118 1021.1 47.1464Z" fill="#C8102E" fill-opacity="0.33"/>
    <path d="M1110.46 110.568C1108.8 110.568 1107.25 110.648 1105.82 110.809C1102.04 111.233 1099.06 112.215 1096.87 113.755C1093.96 115.881 1092.51 119.18 1092.51 123.655C1092.51 127.234 1093.4 130.03 1095.19 132.044C1097.09 133.945 1099.66 134.896 1102.91 134.896C1108.95 134.896 1113.65 132.044 1117 126.339V110.568H1110.46Z" fill="url(#paint12_linear_69_13)"/>
    <path d="M1110.46 110.568C1108.8 110.568 1107.25 110.648 1105.82 110.809C1102.04 111.233 1099.06 112.215 1096.87 113.755C1093.96 115.881 1092.51 119.18 1092.51 123.655C1092.51 127.234 1093.4 130.03 1095.19 132.044C1097.09 133.945 1099.66 134.896 1102.91 134.896C1108.95 134.896 1113.65 132.044 1117 126.339V110.568H1110.46Z" fill="#C8102E" fill-opacity="0.33"/>
    <path fill-rule="evenodd" clip-rule="evenodd" d="M1070.67 94.3951L1070.59 94.4532L1070.48 94.5321L1070.37 94.6059C1059.95 102.094 1054.98 113.106 1054.98 126.003C1054.98 136.876 1058.54 146.61 1066.23 154.131C1073.98 161.723 1084.06 165.04 1095.19 165.04C1105.13 165.04 1114 162.534 1121.24 157.32C1122.25 158.109 1123.33 158.839 1124.47 159.501L1124.59 159.57L1124.71 159.636C1129.98 162.528 1136.12 163.971 1142.6 164.5L1151.45 165.223L1162.97 129.279L1154.21 126.052C1154.2 125.789 1154.19 125.494 1154.19 125.165V90.6017C1154.19 77.9917 1150.58 66.5921 1141.54 58.5758C1132.63 50.6786 1120.01 47.8735 1106.1 47.8735C1100.25 47.8735 1094.06 48.5222 1087.58 49.7452L1087.56 49.7489L1087.54 49.7526C1081.08 50.9943 1074.76 52.7941 1068.57 55.1464L1058.42 59.0026L1070.67 94.3951ZM1089.65 60.7367C1095.58 59.6182 1101.06 59.0589 1106.1 59.0589C1118.85 59.0589 1128.19 61.6875 1134.11 66.9446C1140.04 72.2017 1143.01 80.0874 1143.01 90.6017V125.165C1143.01 128.52 1143.45 130.981 1144.35 132.547C1145.36 134.113 1146.92 135.287 1149.05 136.07L1143.51 153.352C1138.03 152.904 1133.56 151.73 1130.09 149.828C1129.99 149.774 1129.9 149.72 1129.81 149.664C1129.67 149.577 1129.52 149.487 1129.38 149.396C1126.25 147.378 1123.8 144.39 1122.03 140.433C1119.77 143.915 1117.03 146.719 1113.82 148.846C1108.78 152.185 1102.57 153.855 1095.19 153.855C1086.35 153.855 1079.31 151.282 1074.05 146.137C1068.79 140.992 1066.16 134.281 1066.16 126.003C1066.16 116.272 1069.74 108.834 1076.9 103.689C1084.06 98.5433 1094.41 95.9707 1107.94 95.9707H1117V92.1117C1117 89.1298 1116.64 86.6876 1115.92 84.7853C1115.37 83.3339 1114.61 82.1967 1113.65 81.3737C1111.41 79.3604 1107.49 78.3537 1101.9 78.3537C1098.99 78.3537 1095.47 78.8011 1091.33 79.6959C1087.19 80.4789 1082.94 81.5975 1078.58 83.0516L1072.54 65.6023C1074.49 64.8601 1076.46 64.1793 1078.44 63.5599C1080.02 63.0666 1081.6 62.6123 1083.2 62.1969C1085.33 61.6402 1087.49 61.1535 1089.65 60.7367Z" fill="url(#paint13_linear_69_13)"/>
    <path fill-rule="evenodd" clip-rule="evenodd" d="M1070.67 94.3951L1070.59 94.4532L1070.48 94.5321L1070.37 94.6059C1059.95 102.094 1054.98 113.106 1054.98 126.003C1054.98 136.876 1058.54 146.61 1066.23 154.131C1073.98 161.723 1084.06 165.04 1095.19 165.04C1105.13 165.04 1114 162.534 1121.24 157.32C1122.25 158.109 1123.33 158.839 1124.47 159.501L1124.59 159.57L1124.71 159.636C1129.98 162.528 1136.12 163.971 1142.6 164.5L1151.45 165.223L1162.97 129.279L1154.21 126.052C1154.2 125.789 1154.19 125.494 1154.19 125.165V90.6017C1154.19 77.9917 1150.58 66.5921 1141.54 58.5758C1132.63 50.6786 1120.01 47.8735 1106.1 47.8735C1100.25 47.8735 1094.06 48.5222 1087.58 49.7452L1087.56 49.7489L1087.54 49.7526C1081.08 50.9943 1074.76 52.7941 1068.57 55.1464L1058.42 59.0026L1070.67 94.3951ZM1089.65 60.7367C1095.58 59.6182 1101.06 59.0589 1106.1 59.0589C1118.85 59.0589 1128.19 61.6875 1134.11 66.9446C1140.04 72.2017 1143.01 80.0874 1143.01 90.6017V125.165C1143.01 128.52 1143.45 130.981 1144.35 132.547C1145.36 134.113 1146.92 135.287 1149.05 136.07L1143.51 153.352C1138.03 152.904 1133.56 151.73 1130.09 149.828C1129.99 149.774 1129.9 149.72 1129.81 149.664C1129.67 149.577 1129.52 149.487 1129.38 149.396C1126.25 147.378 1123.8 144.39 1122.03 140.433C1119.77 143.915 1117.03 146.719 1113.82 148.846C1108.78 152.185 1102.57 153.855 1095.19 153.855C1086.35 153.855 1079.31 151.282 1074.05 146.137C1068.79 140.992 1066.16 134.281 1066.16 126.003C1066.16 116.272 1069.74 108.834 1076.9 103.689C1084.06 98.5433 1094.41 95.9707 1107.94 95.9707H1117V92.1117C1117 89.1298 1116.64 86.6876 1115.92 84.7853C1115.37 83.3339 1114.61 82.1967 1113.65 81.3737C1111.41 79.3604 1107.49 78.3537 1101.9 78.3537C1098.99 78.3537 1095.47 78.8011 1091.33 79.6959C1087.19 80.4789 1082.94 81.5975 1078.58 83.0516L1072.54 65.6023C1074.49 64.8601 1076.46 64.1793 1078.44 63.5599C1080.02 63.0666 1081.6 62.6123 1083.2 62.1969C1085.33 61.6402 1087.49 61.1535 1089.65 60.7367Z" fill="#C8102E" fill-opacity="0.33"/>
    <path fill-rule="evenodd" clip-rule="evenodd" d="M1181.43 199.417C1196.55 198.55 1209.79 194.585 1220.14 186.563C1220.52 186.272 1220.9 185.977 1221.28 185.678H1274.58V174.492H1231.9C1236.09 168.665 1239.32 161.96 1241.63 154.518L1241.64 154.489L1274.6 50.7258H1223.16L1215.01 84.4385L1207.56 50.7258H1155.28L1187.43 156.102C1185.03 156.987 1181.5 157.877 1176.48 158.537L1165.15 160.027L1167.37 174.492H246.079V185.678H1169.08L1171.28 200L1181.43 199.417ZM1199.03 162.188C1198.3 162.826 1197.53 163.404 1196.73 163.922C1193.36 166.169 1188.42 167.868 1181.92 169.017C1180.65 169.241 1179.32 169.444 1177.94 169.627L1180.79 188.25C1194.44 187.467 1205.29 183.944 1213.34 177.68C1221.51 171.528 1227.38 162.692 1230.96 151.171L1259.31 61.9112H1231.96L1214.52 134.057L1198.58 61.9112H1170.39L1197.57 151.003L1200.5 161C1200.5 161 1200.5 161 1199.03 162.188Z" fill="url(#paint14_linear_69_13)"/>
    <path fill-rule="evenodd" clip-rule="evenodd" d="M1181.43 199.417C1196.55 198.55 1209.79 194.585 1220.14 186.563C1220.52 186.272 1220.9 185.977 1221.28 185.678H1274.58V174.492H1231.9C1236.09 168.665 1239.32 161.96 1241.63 154.518L1241.64 154.489L1274.6 50.7258H1223.16L1215.01 84.4385L1207.56 50.7258H1155.28L1187.43 156.102C1185.03 156.987 1181.5 157.877 1176.48 158.537L1165.15 160.027L1167.37 174.492H246.079V185.678H1169.08L1171.28 200L1181.43 199.417ZM1199.03 162.188C1198.3 162.826 1197.53 163.404 1196.73 163.922C1193.36 166.169 1188.42 167.868 1181.92 169.017C1180.65 169.241 1179.32 169.444 1177.94 169.627L1180.79 188.25C1194.44 187.467 1205.29 183.944 1213.34 177.68C1221.51 171.528 1227.38 162.692 1230.96 151.171L1259.31 61.9112H1231.96L1214.52 134.057L1198.58 61.9112H1170.39L1197.57 151.003L1200.5 161C1200.5 161 1200.5 161 1199.03 162.188Z" fill="#C8102E" fill-opacity="0.33"/>
    <defs>
        <linearGradient id="paint0_linear_69_13" x1="0" y1="0" x2="1274.58" y2="200.219" gradientUnits="userSpaceOnUse">
            <stop stop-color="#FFADAD"/>
            <stop offset="0.142857" stop-color="#FFD6A5"/>
            <stop offset="0.285714" stop-color="#FDFFB6"/>
            <stop offset="0.428571" stop-color="#CAFFBF"/>
            <stop offset="0.571429" stop-color="#9BF6FF"/>
            <stop offset="0.714286" stop-color="#A0C4FF"/>
            <stop offset="0.857143" stop-color="#BDB2FF"/>
            <stop offset="1" stop-color="#FFC6FF"/>
        </linearGradient>
        <linearGradient id="paint1_linear_69_13" x1="0" y1="0" x2="1274.58" y2="200.219" gradientUnits="userSpaceOnUse">
            <stop stop-color="#FFADAD"/>
            <stop offset="0.142857" stop-color="#FFD6A5"/>
            <stop offset="0.285714" stop-color="#FDFFB6"/>
            <stop offset="0.428571" stop-color="#CAFFBF"/>
            <stop offset="0.571429" stop-color="#9BF6FF"/>
            <stop offset="0.714286" stop-color="#A0C4FF"/>
            <stop offset="0.857143" stop-color="#BDB2FF"/>
            <stop offset="1" stop-color="#FFC6FF"/>
        </linearGradient>
        <linearGradient id="paint2_linear_69_13" x1="0" y1="0" x2="1274.58" y2="200.219" gradientUnits="userSpaceOnUse">
            <stop stop-color="#FFADAD"/>
            <stop offset="0.142857" stop-color="#FFD6A5"/>
            <stop offset="0.285714" stop-color="#FDFFB6"/>
            <stop offset="0.428571" stop-color="#CAFFBF"/>
            <stop offset="0.571429" stop-color="#9BF6FF"/>
            <stop offset="0.714286" stop-color="#A0C4FF"/>
            <stop offset="0.857143" stop-color="#BDB2FF"/>
            <stop offset="1" stop-color="#FFC6FF"/>
        </linearGradient>
        <linearGradient id="paint3_linear_69_13" x1="0" y1="0" x2="1274.58" y2="200.219" gradientUnits="userSpaceOnUse">
            <stop stop-color="#FFADAD"/>
            <stop offset="0.142857" stop-color="#FFD6A5"/>
            <stop offset="0.285714" stop-color="#FDFFB6"/>
            <stop offset="0.428571" stop-color="#CAFFBF"/>
            <stop offset="0.571429" stop-color="#9BF6FF"/>
            <stop offset="0.714286" stop-color="#A0C4FF"/>
            <stop offset="0.857143" stop-color="#BDB2FF"/>
            <stop offset="1" stop-color="#FFC6FF"/>
        </linearGradient>
        <linearGradient id="paint4_linear_69_13" x1="0" y1="0" x2="1274.58" y2="200.219" gradientUnits="userSpaceOnUse">
            <stop stop-color="#FFADAD"/>
            <stop offset="0.142857" stop-color="#FFD6A5"/>
            <stop offset="0.285714" stop-color="#FDFFB6"/>
            <stop offset="0.428571" stop-color="#CAFFBF"/>
            <stop offset="0.571429" stop-color="#9BF6FF"/>
            <stop offset="0.714286" stop-color="#A0C4FF"/>
            <stop offset="0.857143" stop-color="#BDB2FF"/>
            <stop offset="1" stop-color="#FFC6FF"/>
        </linearGradient>
        <linearGradient id="paint5_linear_69_13" x1="0" y1="0" x2="1274.58" y2="200.219" gradientUnits="userSpaceOnUse">
            <stop stop-color="#FFADAD"/>
            <stop offset="0.142857" stop-color="#FFD6A5"/>
            <stop offset="0.285714" stop-color="#FDFFB6"/>
            <stop offset="0.428571" stop-color="#CAFFBF"/>
            <stop offset="0.571429" stop-color="#9BF6FF"/>
            <stop offset="0.714286" stop-color="#A0C4FF"/>
            <stop offset="0.857143" stop-color="#BDB2FF"/>
            <stop offset="1" stop-color="#FFC6FF"/>
        </linearGradient>
        <linearGradient id="paint6_linear_69_13" x1="0" y1="0" x2="1274.58" y2="200.219" gradientUnits="userSpaceOnUse">
            <stop stop-color="#FFADAD"/>
            <stop offset="0.142857" stop-color="#FFD6A5"/>
            <stop offset="0.285714" stop-color="#FDFFB6"/>
            <stop offset="0.428571" stop-color="#CAFFBF"/>
            <stop offset="0.571429" stop-color="#9BF6FF"/>
            <stop offset="0.714286" stop-color="#A0C4FF"/>
            <stop offset="0.857143" stop-color="#BDB2FF"/>
            <stop offset="1" stop-color="#FFC6FF"/>
        </linearGradient>
        <linearGradient id="paint7_linear_69_13" x1="0" y1="0" x2="1274.58" y2="200.219" gradientUnits="userSpaceOnUse">
            <stop stop-color="#FFADAD"/>
            <stop offset="0.142857" stop-color="#FFD6A5"/>
            <stop offset="0.285714" stop-color="#FDFFB6"/>
            <stop offset="0.428571" stop-color="#CAFFBF"/>
            <stop offset="0.571429" stop-color="#9BF6FF"/>
            <stop offset="0.714286" stop-color="#A0C4FF"/>
            <stop offset="0.857143" stop-color="#BDB2FF"/>
            <stop offset="1" stop-color="#FFC6FF"/>
        </linearGradient>
        <linearGradient id="paint8_linear_69_13" x1="0" y1="0" x2="1274.58" y2="200.219" gradientUnits="userSpaceOnUse">
            <stop stop-color="#FFADAD"/>
            <stop offset="0.142857" stop-color="#FFD6A5"/>
            <stop offset="0.285714" stop-color="#FDFFB6"/>
            <stop offset="0.428571" stop-color="#CAFFBF"/>
            <stop offset="0.571429" stop-color="#9BF6FF"/>
            <stop offset="0.714286" stop-color="#A0C4FF"/>
            <stop offset="0.857143" stop-color="#BDB2FF"/>
            <stop offset="1" stop-color="#FFC6FF"/>
        </linearGradient>
        <linearGradient id="paint9_linear_69_13" x1="0" y1="0" x2="1274.58" y2="200.219" gradientUnits="userSpaceOnUse">
            <stop stop-color="#FFADAD"/>
            <stop offset="0.142857" stop-color="#FFD6A5"/>
            <stop offset="0.285714" stop-color="#FDFFB6"/>
            <stop offset="0.428571" stop-color="#CAFFBF"/>
            <stop offset="0.571429" stop-color="#9BF6FF"/>
            <stop offset="0.714286" stop-color="#A0C4FF"/>
            <stop offset="0.857143" stop-color="#BDB2FF"/>
            <stop offset="1" stop-color="#FFC6FF"/>
        </linearGradient>
        <linearGradient id="paint10_linear_69_13" x1="0" y1="0" x2="1274.58" y2="200.219" gradientUnits="userSpaceOnUse">
            <stop stop-color="#FFADAD"/>
            <stop offset="0.142857" stop-color="#FFD6A5"/>
            <stop offset="0.285714" stop-color="#FDFFB6"/>
            <stop offset="0.428571" stop-color="#CAFFBF"/>
            <stop offset="0.571429" stop-color="#9BF6FF"/>
            <stop offset="0.714286" stop-color="#A0C4FF"/>
            <stop offset="0.857143" stop-color="#BDB2FF"/>
            <stop offset="1" stop-color="#FFC6FF"/>
        </linearGradient>
        <linearGradient id="paint11_linear_69_13" x1="0" y1="0" x2="1274.58" y2="200.219" gradientUnits="userSpaceOnUse">
            <stop stop-color="#FFADAD"/>
            <stop offset="0.142857" stop-color="#FFD6A5"/>
            <stop offset="0.285714" stop-color="#FDFFB6"/>
            <stop offset="0.428571" stop-color="#CAFFBF"/>
            <stop offset="0.571429" stop-color="#9BF6FF"/>
            <stop offset="0.714286" stop-color="#A0C4FF"/>
            <stop offset="0.857143" stop-color="#BDB2FF"/>
            <stop offset="1" stop-color="#FFC6FF"/>
        </linearGradient>
        <linearGradient id="paint12_linear_69_13" x1="0" y1="0" x2="1274.58" y2="200.219" gradientUnits="userSpaceOnUse">
            <stop stop-color="#FFADAD"/>
            <stop offset="0.142857" stop-color="#FFD6A5"/>
            <stop offset="0.285714" stop-color="#FDFFB6"/>
            <stop offset="0.428571" stop-color="#CAFFBF"/>
            <stop offset="0.571429" stop-color="#9BF6FF"/>
            <stop offset="0.714286" stop-color="#A0C4FF"/>
            <stop offset="0.857143" stop-color="#BDB2FF"/>
            <stop offset="1" stop-color="#FFC6FF"/>
        </linearGradient>
        <linearGradient id="paint13_linear_69_13" x1="0" y1="0" x2="1274.58" y2="200.219" gradientUnits="userSpaceOnUse">
            <stop stop-color="#FFADAD"/>
            <stop offset="0.142857" stop-color="#FFD6A5"/>
            <stop offset="0.285714" stop-color="#FDFFB6"/>
            <stop offset="0.428571" stop-color="#CAFFBF"/>
            <stop offset="0.571429" stop-color="#9BF6FF"/>
            <stop offset="0.714286" stop-color="#A0C4FF"/>
            <stop offset="0.857143" stop-color="#BDB2FF"/>
            <stop offset="1" stop-color="#FFC6FF"/>
        </linearGradient>
        <linearGradient id="paint14_linear_69_13" x1="0" y1="0" x2="1274.58" y2="200.219" gradientUnits="userSpaceOnUse">
            <stop stop-color="#FFADAD"/>
            <stop offset="0.142857" stop-color="#FFD6A5"/>
            <stop offset="0.285714" stop-color="#FDFFB6"/>
            <stop offset="0.428571" stop-color="#CAFFBF"/>
            <stop offset="0.571429" stop-color="#9BF6FF"/>
            <stop offset="0.714286" stop-color="#A0C4FF"/>
            <stop offset="0.857143" stop-color="#BDB2FF"/>
            <stop offset="1" stop-color="#FFC6FF"/>
        </linearGradient>
    </defs>
</svg>
