<?xml version="1.0" encoding="UTF-8"?>
<!DOCTYPE svg PUBLIC "-//W3C//DTD SVG 1.1//EN" "http://www.w3.org/Graphics/SVG/1.1/DTD/svg11.dtd">
<!-- Creator: CorelDRAW X7 -->
<svg xmlns="http://www.w3.org/2000/svg" xml:space="preserve" width="1001px" height="274px" version="1.1" style="shape-rendering:geometricPrecision; text-rendering:geometricPrecision; image-rendering:optimizeQuality; fill-rule:evenodd; clip-rule:evenodd" viewBox="0 0 94051 25742" xmlns:xlink="http://www.w3.org/1999/xlink">
 <defs>
  <style type="text/css">
   <![CDATA[
    .fil0 {fill:white;fill-rule:nonzero}
   ]]>
  </style>
 </defs>
    <g id="Layer_x0020_1">
  <metadata id="CorelCorpID_0Corel-Layer"/>
        <path class="fil0" d="M22993 1609l-592 6806 -1380 0 0 -3527c-1583,-1874 -3871,-2847 -6606,-2847 -5356,0 -8995,3728 -8995,10648 0,6921 3639,10649 8995,10649 2354,0 4822,-415 7237,-1712l958 1643c-1945,1552 -5623,2473 -8195,2473 -8584,0 -14415,-4506 -14415,-12871 0,-8365 5831,-12871 14415,-12871 3366,0 5858,610 8578,1609zm68513 6232c1010,0 1870,206 2545,574l-465 5348 -1380 0c-475,-1303 -1350,-1856 -2586,-1856 -1947,0 -3088,1378 -3088,4885l0 6995 3088 0 0 1381 -10211 0 0 -1381 2736 0 0 -13992 -2736 0 0 -1380 7123 -574 0 3937c757,-2059 2085,-3937 4974,-3937zm-30697 1954l-1698 0 -6595 15373 -3042 0 -5982 -15373 -1732 0 0 -1380 9239 0 0 1380 -2566 0 3940 10560 4161 -10560 -2566 0 0 -1380 6841 0 0 1380zm-28144 -1954c4937,0 7842,2028 8393,7072l-4805 0c-298,-3643 -1536,-5118 -3588,-5118 -2053,0 -3290,1475 -3588,5118l-4805 0c551,-5044 3456,-7072 8393,-7072zm8393 10829c-551,5044 -3456,7072 -8393,7072 -4937,0 -7842,-2028 -8393,-7072l4805 0c298,3641 1536,5115 3588,5115 2052,0 3289,-1474 3588,-5115l4805 0zm28337 -10829c5002,0 7776,2374 7940,8376 0,1 -10355,1239 -11336,1356 229,2996 1803,5592 5311,5605 1706,6 3589,-798 4577,-1520l940 1611c-1962,1754 -4690,2473 -7432,2473 -5158,0 -7947,-3863 -7947,-8951 0,-6425 4129,-8950 7947,-8950zm3337 6802c-315,-3446 -1463,-4848 -3337,-4848 -2013,0 -3189,1618 -3393,5653l6730 -805z"/>
 </g>
</svg>