<svg width="1307" height="186" viewBox="0 0 1307 186" fill="none" xmlns="http://www.w3.org/2000/svg">
<path fill-rule="evenodd" clip-rule="evenodd" d="M131.232 33.5562C133.135 30.2657 134.225 26.4455 134.225 22.3708C134.225 10.0157 124.209 0 111.854 0H89.4832C77.1281 0 67.1124 10.0157 67.1124 22.3708C67.1124 26.4455 68.2018 30.2657 70.1052 33.5562H22.3708C10.0157 33.5562 0 43.5719 0 55.927V163.307C0 175.662 10.0157 185.678 22.3708 185.678H178.966C191.321 185.678 201.337 175.662 201.337 163.307V55.927C201.337 43.5719 191.321 33.5562 178.966 33.5562H131.232ZM78.2978 22.3708C78.2978 28.5483 83.3056 33.5562 89.4832 33.5562H111.854C118.031 33.5562 123.039 28.5483 123.039 22.3708C123.039 16.1933 118.031 11.1854 111.854 11.1854H89.4832C83.3056 11.1854 78.2978 16.1933 78.2978 22.3708ZM162.188 44.7416H178.966C185.144 44.7416 190.152 49.7495 190.152 55.927V163.307C190.152 169.484 185.144 174.492 178.966 174.492H162.188V44.7416ZM151.003 44.7416H50.3343V174.492H151.003V44.7416ZM39.1489 174.492H22.3708C16.1933 174.492 11.1854 169.484 11.1854 163.307V55.927C11.1854 49.7495 16.1933 44.7416 22.3708 44.7416H39.1489V174.492Z" fill="url(#paint0_linear_135_31)"/>
<path fill-rule="evenodd" clip-rule="evenodd" d="M131.232 33.5562C133.135 30.2657 134.225 26.4455 134.225 22.3708C134.225 10.0157 124.209 0 111.854 0H89.4832C77.1281 0 67.1124 10.0157 67.1124 22.3708C67.1124 26.4455 68.2018 30.2657 70.1052 33.5562H22.3708C10.0157 33.5562 0 43.5719 0 55.927V163.307C0 175.662 10.0157 185.678 22.3708 185.678H178.966C191.321 185.678 201.337 175.662 201.337 163.307V55.927C201.337 43.5719 191.321 33.5562 178.966 33.5562H131.232ZM78.2978 22.3708C78.2978 28.5483 83.3056 33.5562 89.4832 33.5562H111.854C118.031 33.5562 123.039 28.5483 123.039 22.3708C123.039 16.1933 118.031 11.1854 111.854 11.1854H89.4832C83.3056 11.1854 78.2978 16.1933 78.2978 22.3708ZM162.188 44.7416H178.966C185.144 44.7416 190.152 49.7495 190.152 55.927V163.307C190.152 169.484 185.144 174.492 178.966 174.492H162.188V44.7416ZM151.003 44.7416H50.3343V174.492H151.003V44.7416ZM39.1489 174.492H22.3708C16.1933 174.492 11.1854 169.484 11.1854 163.307V55.927C11.1854 49.7495 16.1933 44.7416 22.3708 44.7416H39.1489V174.492Z" fill="#C8102E" fill-opacity="0.33"/>
<path fill-rule="evenodd" clip-rule="evenodd" d="M307.649 0C316.277 0 324.364 1.25766 331.709 4.04309C338.952 6.74627 345.645 10.7549 351.783 15.9378L360.603 23.3859L332.474 56.9235L323.667 50.1046C320.753 47.8485 318.147 46.3613 315.857 45.4454C313.821 44.631 311.582 44.1889 309.039 44.1889C304.864 44.1889 301.947 45.6356 299.305 49.41C296.629 53.3969 294.387 61.1176 294.387 74.4784C294.387 87.5202 296.599 95.1423 299.28 99.161C301.808 102.691 304.788 104.247 309.387 104.247C312.272 104.247 314.578 103.734 316.479 102.898C319.199 101.567 322.39 99.5909 326.066 96.8335L335.178 89.9995L361.115 123.397L353.89 130.622C348.275 136.237 341.571 140.706 333.952 144.112C325.929 147.752 317.216 149.478 307.997 149.478C295.147 149.478 283.369 146.651 273.084 140.567C262.706 134.428 254.803 125.442 249.286 114.132L249.249 114.056L249.213 113.979C243.806 102.472 241.337 89.1802 241.337 74.4784C241.337 60.0404 243.893 46.9314 249.459 35.52L249.484 35.469L249.51 35.4182C255.136 24.1651 263.07 15.2197 273.411 9.09711C283.692 2.96194 295.21 0 307.649 0ZM320.159 34.6909C323.634 36.0809 327.167 38.1658 330.757 40.9457L344.309 24.7875C344.198 24.6929 344.085 24.5989 343.973 24.5053C341.01 22.0372 337.935 19.9226 334.749 18.1616C332.435 16.8826 330.062 15.7901 327.63 14.8841C321.839 12.6833 315.178 11.5829 307.649 11.5829C297.109 11.5829 287.669 14.0733 279.329 19.0539C271.105 23.9188 264.619 31.1002 259.87 40.5982C255.237 50.0962 252.92 61.3896 252.92 74.4784C252.92 87.9146 255.179 99.4396 259.696 109.053C264.329 118.551 270.758 125.733 278.982 130.598C287.206 135.463 296.877 137.895 307.997 137.895C315.758 137.895 322.823 136.447 329.194 133.551C335.68 130.656 341.182 126.949 345.699 122.432L333.016 106.1C328.846 109.227 324.966 111.66 321.375 113.397C317.785 115.019 313.788 115.829 309.387 115.829C301.047 115.829 294.503 112.47 289.754 105.752C285.121 98.9184 282.804 88.4937 282.804 74.4784C282.804 60.2313 285.121 49.6908 289.754 42.8569C294.503 36.023 300.931 32.606 309.039 32.606C312.978 32.606 316.684 33.301 320.159 34.6909Z" fill="url(#paint1_linear_135_31)"/>
<path fill-rule="evenodd" clip-rule="evenodd" d="M307.649 0C316.277 0 324.364 1.25766 331.709 4.04309C338.952 6.74627 345.645 10.7549 351.783 15.9378L360.603 23.3859L332.474 56.9235L323.667 50.1046C320.753 47.8485 318.147 46.3613 315.857 45.4454C313.821 44.631 311.582 44.1889 309.039 44.1889C304.864 44.1889 301.947 45.6356 299.305 49.41C296.629 53.3969 294.387 61.1176 294.387 74.4784C294.387 87.5202 296.599 95.1423 299.28 99.161C301.808 102.691 304.788 104.247 309.387 104.247C312.272 104.247 314.578 103.734 316.479 102.898C319.199 101.567 322.39 99.5909 326.066 96.8335L335.178 89.9995L361.115 123.397L353.89 130.622C348.275 136.237 341.571 140.706 333.952 144.112C325.929 147.752 317.216 149.478 307.997 149.478C295.147 149.478 283.369 146.651 273.084 140.567C262.706 134.428 254.803 125.442 249.286 114.132L249.249 114.056L249.213 113.979C243.806 102.472 241.337 89.1802 241.337 74.4784C241.337 60.0404 243.893 46.9314 249.459 35.52L249.484 35.469L249.51 35.4182C255.136 24.1651 263.07 15.2197 273.411 9.09711C283.692 2.96194 295.21 0 307.649 0ZM320.159 34.6909C323.634 36.0809 327.167 38.1658 330.757 40.9457L344.309 24.7875C344.198 24.6929 344.085 24.5989 343.973 24.5053C341.01 22.0372 337.935 19.9226 334.749 18.1616C332.435 16.8826 330.062 15.7901 327.63 14.8841C321.839 12.6833 315.178 11.5829 307.649 11.5829C297.109 11.5829 287.669 14.0733 279.329 19.0539C271.105 23.9188 264.619 31.1002 259.87 40.5982C255.237 50.0962 252.92 61.3896 252.92 74.4784C252.92 87.9146 255.179 99.4396 259.696 109.053C264.329 118.551 270.758 125.733 278.982 130.598C287.206 135.463 296.877 137.895 307.997 137.895C315.758 137.895 322.823 136.447 329.194 133.551C335.68 130.656 341.182 126.949 345.699 122.432L333.016 106.1C328.846 109.227 324.966 111.66 321.375 113.397C317.785 115.019 313.788 115.829 309.387 115.829C301.047 115.829 294.503 112.47 289.754 105.752C285.121 98.9184 282.804 88.4937 282.804 74.4784C282.804 60.2313 285.121 49.6908 289.754 42.8569C294.503 36.023 300.931 32.606 309.039 32.606C312.978 32.606 316.684 33.301 320.159 34.6909Z" fill="#C8102E" fill-opacity="0.33"/>
<path d="M411.855 93.3188C413.339 93.1523 414.941 93.069 416.662 93.069H423.438V109.401C419.963 115.308 415.098 118.262 408.843 118.262C405.484 118.262 402.82 117.277 400.851 115.308C398.998 113.223 398.071 110.328 398.071 106.621C398.071 101.988 399.577 98.5709 402.588 96.3701C404.856 94.7748 407.944 93.7577 411.855 93.3188Z" fill="url(#paint2_linear_135_31)"/>
<path d="M411.855 93.3188C413.339 93.1523 414.941 93.069 416.662 93.069H423.438V109.401C419.963 115.308 415.098 118.262 408.843 118.262C405.484 118.262 402.82 117.277 400.851 115.308C398.998 113.223 398.071 110.328 398.071 106.621C398.071 101.988 399.577 98.5709 402.588 96.3701C404.856 94.7748 407.944 93.7577 411.855 93.3188Z" fill="#C8102E" fill-opacity="0.33"/>
<path fill-rule="evenodd" clip-rule="evenodd" d="M375.459 76.3217L375.343 76.4042L375.261 76.4622L375.153 76.5399C364.364 84.2942 359.21 95.6975 359.21 109.053C359.21 120.313 362.899 130.392 370.857 138.181C378.89 146.042 389.322 149.478 400.851 149.478C411.141 149.478 420.329 146.882 427.826 141.483C428.876 142.3 429.991 143.056 431.174 143.742L431.296 143.813L431.42 143.881C436.881 146.876 443.241 148.371 449.947 148.918L459.114 149.667L471.039 112.445L461.968 109.103C461.957 108.831 461.951 108.525 461.951 108.185V72.3934C461.951 59.3353 458.206 47.5305 448.845 39.2293C439.623 31.0514 426.553 28.1466 412.144 28.1466C406.086 28.1466 399.682 28.8183 392.97 30.0848L392.95 30.0886L392.93 30.0924C386.243 31.3783 379.692 33.242 373.281 35.678L362.773 39.6712L375.459 76.3217ZM395.117 41.467C401.256 40.3087 406.932 39.7295 412.144 39.7295C425.349 39.7295 435.021 42.4515 441.16 47.8955C447.299 53.3395 450.368 61.5055 450.368 72.3934V108.185C450.368 111.66 450.831 114.208 451.758 115.829C452.801 117.451 454.422 118.667 456.623 119.478L450.889 137.374C445.214 136.91 440.581 135.694 436.99 133.725C436.742 133.581 436.499 133.432 436.259 133.278C433.02 131.188 430.484 128.094 428.65 123.995C426.306 127.601 423.472 130.505 420.146 132.708C414.924 136.166 408.493 137.895 400.851 137.895C391.701 137.895 384.403 135.231 378.959 129.903C373.515 124.575 370.793 117.625 370.793 109.053C370.793 98.9763 374.5 91.2736 381.913 85.9455C389.326 80.6173 400.04 77.9532 414.056 77.9532H423.438V73.9571C423.438 70.8692 423.065 68.3402 422.32 66.3703C421.751 64.8673 420.966 63.6897 419.963 62.8375C417.646 60.7526 413.592 59.7101 407.801 59.7101C404.789 59.7101 401.141 60.1734 396.855 61.1001C392.569 61.9109 388.168 63.0692 383.65 64.5749L377.396 46.5056C379.418 45.737 381.455 45.0321 383.505 44.3907C385.139 43.8798 386.781 43.4093 388.432 42.979C390.644 42.4026 392.873 41.8986 395.117 41.467Z" fill="url(#paint3_linear_135_31)"/>
<path fill-rule="evenodd" clip-rule="evenodd" d="M375.459 76.3217L375.343 76.4042L375.261 76.4622L375.153 76.5399C364.364 84.2942 359.21 95.6975 359.21 109.053C359.21 120.313 362.899 130.392 370.857 138.181C378.89 146.042 389.322 149.478 400.851 149.478C411.141 149.478 420.329 146.882 427.826 141.483C428.876 142.3 429.991 143.056 431.174 143.742L431.296 143.813L431.42 143.881C436.881 146.876 443.241 148.371 449.947 148.918L459.114 149.667L471.039 112.445L461.968 109.103C461.957 108.831 461.951 108.525 461.951 108.185V72.3934C461.951 59.3353 458.206 47.5305 448.845 39.2293C439.623 31.0514 426.553 28.1466 412.144 28.1466C406.086 28.1466 399.682 28.8183 392.97 30.0848L392.95 30.0886L392.93 30.0924C386.243 31.3783 379.692 33.242 373.281 35.678L362.773 39.6712L375.459 76.3217ZM395.117 41.467C401.256 40.3087 406.932 39.7295 412.144 39.7295C425.349 39.7295 435.021 42.4515 441.16 47.8955C447.299 53.3395 450.368 61.5055 450.368 72.3934V108.185C450.368 111.66 450.831 114.208 451.758 115.829C452.801 117.451 454.422 118.667 456.623 119.478L450.889 137.374C445.214 136.91 440.581 135.694 436.99 133.725C436.742 133.581 436.499 133.432 436.259 133.278C433.02 131.188 430.484 128.094 428.65 123.995C426.306 127.601 423.472 130.505 420.146 132.708C414.924 136.166 408.493 137.895 400.851 137.895C391.701 137.895 384.403 135.231 378.959 129.903C373.515 124.575 370.793 117.625 370.793 109.053C370.793 98.9763 374.5 91.2736 381.913 85.9455C389.326 80.6173 400.04 77.9532 414.056 77.9532H423.438V73.9571C423.438 70.8692 423.065 68.3402 422.32 66.3703C421.751 64.8673 420.966 63.6897 419.963 62.8375C417.646 60.7526 413.592 59.7101 407.801 59.7101C404.789 59.7101 401.141 60.1734 396.855 61.1001C392.569 61.9109 388.168 63.0692 383.65 64.5749L377.396 46.5056C379.418 45.737 381.455 45.0321 383.505 44.3907C385.139 43.8798 386.781 43.4093 388.432 42.979C390.644 42.4026 392.873 41.8986 395.117 41.467Z" fill="#C8102E" fill-opacity="0.33"/>
<path fill-rule="evenodd" clip-rule="evenodd" d="M565.415 33.0439L557.42 81.9713L545.355 79.156C542.226 78.4259 540.438 78.2428 539.647 78.2428C537.307 78.2428 536.775 78.8548 536.389 79.3634C535.143 81.0342 533.528 84.4422 532.118 90.5234V146.524H481.501V31.1002H527.273L527.446 32.4707C532.203 29.8786 537.467 28.4941 543.122 28.4941C547.407 28.4941 551.587 29.011 555.573 30.1736L565.415 33.0439ZM493.083 42.6832V134.941H520.535V89.2466C522.157 81.7177 524.357 76.1 527.137 72.3934C530.033 68.5711 534.203 66.6599 539.647 66.6599C539.996 66.6599 540.364 66.6712 540.752 66.6939C542.681 66.8069 545.093 67.2009 547.987 67.8761L552.33 41.2932C550.141 40.6546 547.772 40.2675 545.223 40.1319C544.536 40.0953 543.835 40.077 543.122 40.077C542.327 40.077 541.544 40.1182 540.772 40.2007C536.518 40.6554 532.617 42.3634 529.068 45.3247C528.945 45.4272 528.823 45.5313 528.701 45.6368C524.531 49.2275 521.404 54.2082 519.319 60.5788L517.06 42.6832H493.083Z" fill="url(#paint4_linear_135_31)"/>
<path fill-rule="evenodd" clip-rule="evenodd" d="M565.415 33.0439L557.42 81.9713L545.355 79.156C542.226 78.4259 540.438 78.2428 539.647 78.2428C537.307 78.2428 536.775 78.8548 536.389 79.3634C535.143 81.0342 533.528 84.4422 532.118 90.5234V146.524H481.501V31.1002H527.273L527.446 32.4707C532.203 29.8786 537.467 28.4941 543.122 28.4941C547.407 28.4941 551.587 29.011 555.573 30.1736L565.415 33.0439ZM493.083 42.6832V134.941H520.535V89.2466C522.157 81.7177 524.357 76.1 527.137 72.3934C530.033 68.5711 534.203 66.6599 539.647 66.6599C539.996 66.6599 540.364 66.6712 540.752 66.6939C542.681 66.8069 545.093 67.2009 547.987 67.8761L552.33 41.2932C550.141 40.6546 547.772 40.2675 545.223 40.1319C544.536 40.0953 543.835 40.077 543.122 40.077C542.327 40.077 541.544 40.1182 540.772 40.2007C536.518 40.6554 532.617 42.3634 529.068 45.3247C528.945 45.4272 528.823 45.5313 528.701 45.6368C524.531 49.2275 521.404 54.2082 519.319 60.5788L517.06 42.6832H493.083Z" fill="#C8102E" fill-opacity="0.33"/>
<path d="M630.564 68.8027C628.462 61.5827 623.934 57.9727 616.979 57.9727C612.23 57.9727 608.524 59.7101 605.86 63.185C604.783 64.6539 603.881 66.5265 603.156 68.8027C602.165 71.911 601.503 75.772 601.169 80.3857H631.921V79.1695C631.855 75.1391 631.403 71.6836 630.564 68.8027Z" fill="url(#paint5_linear_135_31)"/>
<path d="M630.564 68.8027C628.462 61.5827 623.934 57.9727 616.979 57.9727C612.23 57.9727 608.524 59.7101 605.86 63.185C604.783 64.6539 603.881 66.5265 603.156 68.8027C602.165 71.911 601.503 75.772 601.169 80.3857H631.921V79.1695C631.855 75.1391 631.403 71.6836 630.564 68.8027Z" fill="#C8102E" fill-opacity="0.33"/>
<path fill-rule="evenodd" clip-rule="evenodd" d="M668.556 108.474H657.716L671.506 127.144L662.763 134.102C650.035 144.229 635.528 149.478 619.586 149.478C602.275 149.478 587.335 144.291 576.608 132.476C566.235 121.051 561.613 106.211 561.613 89.2466C561.613 78.4803 563.543 68.4268 567.668 59.3084C571.859 49.9272 578.156 42.2747 586.558 36.7071C595.231 30.8407 605.32 28.1466 616.284 28.1466C632.218 28.1466 646.022 33.2519 656.156 44.4773C666.153 55.5508 670.435 70.2301 670.435 86.988C670.435 91.1307 670.248 94.9356 669.824 98.3281L668.556 108.474ZM593.003 46.3318C586.516 50.6175 581.593 56.5248 578.234 64.0537C574.875 71.4668 573.196 79.8644 573.196 89.2466C573.196 104.073 577.192 115.887 585.184 124.69C593.176 133.493 604.644 137.895 619.586 137.895C628.957 137.895 637.717 135.736 645.863 131.418C647.834 130.374 649.768 129.203 651.667 127.906C652.979 127.01 654.273 126.054 655.551 125.038L644.257 109.748C640.203 112.528 636.439 114.613 632.964 116.003C629.489 117.277 625.898 117.914 622.192 117.914C616.053 117.914 611.246 116.351 607.771 113.223C606.408 111.997 605.241 110.414 604.27 108.474C602.766 105.469 601.732 101.608 601.169 96.8914H658.33C658.678 94.1115 658.852 90.8103 658.852 86.988C658.852 72.1618 655.087 60.5788 647.558 52.2391C640.029 43.8994 629.605 39.7295 616.284 39.7295C607.25 39.7295 599.489 41.9303 593.003 46.3318Z" fill="url(#paint6_linear_135_31)"/>
<path fill-rule="evenodd" clip-rule="evenodd" d="M668.556 108.474H657.716L671.506 127.144L662.763 134.102C650.035 144.229 635.528 149.478 619.586 149.478C602.275 149.478 587.335 144.291 576.608 132.476C566.235 121.051 561.613 106.211 561.613 89.2466C561.613 78.4803 563.543 68.4268 567.668 59.3084C571.859 49.9272 578.156 42.2747 586.558 36.7071C595.231 30.8407 605.32 28.1466 616.284 28.1466C632.218 28.1466 646.022 33.2519 656.156 44.4773C666.153 55.5508 670.435 70.2301 670.435 86.988C670.435 91.1307 670.248 94.9356 669.824 98.3281L668.556 108.474ZM593.003 46.3318C586.516 50.6175 581.593 56.5248 578.234 64.0537C574.875 71.4668 573.196 79.8644 573.196 89.2466C573.196 104.073 577.192 115.887 585.184 124.69C593.176 133.493 604.644 137.895 619.586 137.895C628.957 137.895 637.717 135.736 645.863 131.418C647.834 130.374 649.768 129.203 651.667 127.906C652.979 127.01 654.273 126.054 655.551 125.038L644.257 109.748C640.203 112.528 636.439 114.613 632.964 116.003C629.489 117.277 625.898 117.914 622.192 117.914C616.053 117.914 611.246 116.351 607.771 113.223C606.408 111.997 605.241 110.414 604.27 108.474C602.766 105.469 601.732 101.608 601.169 96.8914H658.33C658.678 94.1115 658.852 90.8103 658.852 86.988C658.852 72.1618 655.087 60.5788 647.558 52.2391C640.029 43.8994 629.605 39.7295 616.284 39.7295C607.25 39.7295 599.489 41.9303 593.003 46.3318Z" fill="#C8102E" fill-opacity="0.33"/>
<path d="M747.278 68.8027C745.176 61.5827 740.648 57.9727 733.693 57.9727C728.944 57.9727 725.238 59.7101 722.574 63.185C721.497 64.6539 720.595 66.5265 719.87 68.8027C718.879 71.911 718.217 75.772 717.883 80.3857H748.635V79.1695C748.569 75.1391 748.117 71.6836 747.278 68.8027Z" fill="url(#paint7_linear_135_31)"/>
<path d="M747.278 68.8027C745.176 61.5827 740.648 57.9727 733.693 57.9727C728.944 57.9727 725.238 59.7101 722.574 63.185C721.497 64.6539 720.595 66.5265 719.87 68.8027C718.879 71.911 718.217 75.772 717.883 80.3857H748.635V79.1695C748.569 75.1391 748.117 71.6836 747.278 68.8027Z" fill="#C8102E" fill-opacity="0.33"/>
<path fill-rule="evenodd" clip-rule="evenodd" d="M785.27 108.474H774.43L788.221 127.144L779.477 134.102C766.749 144.229 752.242 149.478 736.3 149.478C718.989 149.478 704.049 144.291 693.322 132.476C682.949 121.051 678.327 106.211 678.327 89.2466C678.327 78.4803 680.257 68.4268 684.382 59.3084C688.573 49.9272 694.87 42.2747 703.272 36.7071C711.945 30.8407 722.034 28.1466 732.998 28.1466C748.932 28.1466 762.736 33.2519 772.87 44.4773C782.867 55.5508 787.149 70.2301 787.149 86.988C787.149 91.1307 786.962 94.9356 786.538 98.3281L785.27 108.474ZM709.717 46.3318C703.23 50.6175 698.307 56.5248 694.948 64.0537C691.589 71.4668 689.91 79.8644 689.91 89.2466C689.91 104.073 693.906 115.887 701.898 124.69C709.89 133.493 721.358 137.895 736.3 137.895C745.671 137.895 754.431 135.736 762.577 131.418C764.548 130.374 766.483 129.203 768.381 127.906C769.693 127.01 770.987 126.054 772.265 125.038L760.971 109.748C756.917 112.528 753.153 114.613 749.678 116.003C746.203 117.277 742.612 117.914 738.906 117.914C732.767 117.914 727.96 116.351 724.485 113.223C723.122 111.997 721.955 110.414 720.984 108.474C719.48 105.469 718.446 101.608 717.883 96.8914H775.045C775.392 94.1115 775.566 90.8103 775.566 86.988C775.566 72.1618 771.801 60.5788 764.272 52.2391C756.743 43.8994 746.319 39.7295 732.998 39.7295C723.964 39.7295 716.203 41.9303 709.717 46.3318Z" fill="url(#paint8_linear_135_31)"/>
<path fill-rule="evenodd" clip-rule="evenodd" d="M785.27 108.474H774.43L788.221 127.144L779.477 134.102C766.749 144.229 752.242 149.478 736.3 149.478C718.989 149.478 704.049 144.291 693.322 132.476C682.949 121.051 678.327 106.211 678.327 89.2466C678.327 78.4803 680.257 68.4268 684.382 59.3084C688.573 49.9272 694.87 42.2747 703.272 36.7071C711.945 30.8407 722.034 28.1466 732.998 28.1466C748.932 28.1466 762.736 33.2519 772.87 44.4773C782.867 55.5508 787.149 70.2301 787.149 86.988C787.149 91.1307 786.962 94.9356 786.538 98.3281L785.27 108.474ZM709.717 46.3318C703.23 50.6175 698.307 56.5248 694.948 64.0537C691.589 71.4668 689.91 79.8644 689.91 89.2466C689.91 104.073 693.906 115.887 701.898 124.69C709.89 133.493 721.358 137.895 736.3 137.895C745.671 137.895 754.431 135.736 762.577 131.418C764.548 130.374 766.483 129.203 768.381 127.906C769.693 127.01 770.987 126.054 772.265 125.038L760.971 109.748C756.917 112.528 753.153 114.613 749.678 116.003C746.203 117.277 742.612 117.914 738.906 117.914C732.767 117.914 727.96 116.351 724.485 113.223C723.122 111.997 721.955 110.414 720.984 108.474C719.48 105.469 718.446 101.608 717.883 96.8914H775.045C775.392 94.1115 775.566 90.8103 775.566 86.988C775.566 72.1618 771.801 60.5788 764.272 52.2391C756.743 43.8994 746.319 39.7295 732.998 39.7295C723.964 39.7295 716.203 41.9303 709.717 46.3318Z" fill="#C8102E" fill-opacity="0.33"/>
<path fill-rule="evenodd" clip-rule="evenodd" d="M884.168 33.0439L876.173 81.9713L864.107 79.156C860.978 78.4259 859.191 78.2428 858.4 78.2428C856.056 78.2428 855.527 78.8566 855.14 79.3656C853.894 81.0373 852.28 84.4449 850.871 90.5234V146.524H800.253V31.1002H846.026L846.199 32.4707C850.955 29.8786 856.22 28.4941 861.875 28.4941C866.16 28.4941 870.34 29.011 874.326 30.1736L884.168 33.0439ZM811.836 42.6832V134.941H839.288V89.2466C840.909 81.7177 843.11 76.1 845.89 72.3934C848.786 68.5711 852.956 66.6599 858.4 66.6599C858.749 66.6599 859.117 66.6712 859.505 66.6939C861.434 66.8069 863.846 67.2009 866.739 67.8761L871.083 41.2932C868.893 40.6546 866.524 40.2675 863.976 40.1319C863.288 40.0953 862.588 40.077 861.875 40.077C861.08 40.077 860.297 40.1182 859.525 40.2007C855.271 40.6554 851.37 42.3634 847.821 45.3247L847.77 45.3676L847.704 45.4233L847.606 45.506L847.535 45.5671L847.454 45.6368C843.284 49.2275 840.157 54.2082 838.072 60.5788L835.813 42.6832H811.836Z" fill="url(#paint9_linear_135_31)"/>
<path fill-rule="evenodd" clip-rule="evenodd" d="M884.168 33.0439L876.173 81.9713L864.107 79.156C860.978 78.4259 859.191 78.2428 858.4 78.2428C856.056 78.2428 855.527 78.8566 855.14 79.3656C853.894 81.0373 852.28 84.4449 850.871 90.5234V146.524H800.253V31.1002H846.026L846.199 32.4707C850.955 29.8786 856.22 28.4941 861.875 28.4941C866.16 28.4941 870.34 29.011 874.326 30.1736L884.168 33.0439ZM811.836 42.6832V134.941H839.288V89.2466C840.909 81.7177 843.11 76.1 845.89 72.3934C848.786 68.5711 852.956 66.6599 858.4 66.6599C858.749 66.6599 859.117 66.6712 859.505 66.6939C861.434 66.8069 863.846 67.2009 866.739 67.8761L871.083 41.2932C868.893 40.6546 866.524 40.2675 863.976 40.1319C863.288 40.0953 862.588 40.077 861.875 40.077C861.08 40.077 860.297 40.1182 859.525 40.2007C855.271 40.6554 851.37 42.3634 847.821 45.3247L847.77 45.3676L847.704 45.4233L847.606 45.506L847.535 45.5671L847.454 45.6368C843.284 49.2275 840.157 54.2082 838.072 60.5788L835.813 42.6832H811.836Z" fill="#C8102E" fill-opacity="0.33"/>
<path d="M1018.01 38.5133C1014.43 36.6241 1010.13 35.5458 1005.1 35.2783C1004.27 35.2342 1003.42 35.2122 1002.55 35.2122H993.516V114.266H1002.9C1003.65 114.266 1004.38 114.247 1005.1 114.211C1013.4 113.786 1019.79 110.908 1024.27 105.579C1029.13 99.6713 1031.57 89.1887 1031.57 74.1309C1031.57 63.8221 1030.35 55.8298 1027.92 50.1542C1025.48 44.4785 1022.18 40.5982 1018.01 38.5133Z" fill="url(#paint10_linear_135_31)"/>
<path d="M1018.01 38.5133C1014.43 36.6241 1010.13 35.5458 1005.1 35.2783C1004.27 35.2342 1003.42 35.2122 1002.55 35.2122H993.516V114.266H1002.9C1003.65 114.266 1004.38 114.247 1005.1 114.211C1013.4 113.786 1019.79 110.908 1024.27 105.579C1029.13 99.6713 1031.57 89.1887 1031.57 74.1309C1031.57 63.8221 1030.35 55.8298 1027.92 50.1542C1025.48 44.4785 1022.18 40.5982 1018.01 38.5133Z" fill="#C8102E" fill-opacity="0.33"/>
<path fill-rule="evenodd" clip-rule="evenodd" d="M1051.75 130.356L1051.73 130.379C1038.09 141.459 1020.89 146.524 1001.16 146.524H953.439V2.95366H998.554C1019.11 2.95366 1036.91 7.61924 1050.83 18.1107C1066.63 29.8001 1072.69 49.9896 1072.69 74.1309C1072.69 98.0252 1066.77 117.998 1051.78 130.333L1051.75 130.356ZM1043.9 27.3937C1032.55 18.8223 1017.43 14.5366 998.554 14.5366H965.022V134.941H1001.16C1018.88 134.941 1033.3 130.424 1044.42 121.389C1055.54 112.239 1061.1 96.486 1061.1 74.1309C1061.1 51.4283 1055.37 35.8492 1043.9 27.3937Z" fill="url(#paint11_linear_135_31)"/>
<path fill-rule="evenodd" clip-rule="evenodd" d="M1051.75 130.356L1051.73 130.379C1038.09 141.459 1020.89 146.524 1001.16 146.524H953.439V2.95366H998.554C1019.11 2.95366 1036.91 7.61924 1050.83 18.1107C1066.63 29.8001 1072.69 49.9896 1072.69 74.1309C1072.69 98.0252 1066.77 117.998 1051.78 130.333L1051.75 130.356ZM1043.9 27.3937C1032.55 18.8223 1017.43 14.5366 998.554 14.5366H965.022V134.941H1001.16C1018.88 134.941 1033.3 130.424 1044.42 121.389C1055.54 112.239 1061.1 96.486 1061.1 74.1309C1061.1 51.4283 1055.37 35.8492 1043.9 27.3937Z" fill="#C8102E" fill-opacity="0.33"/>
<path d="M1131.63 93.3188C1133.11 93.1523 1134.72 93.069 1136.44 93.069H1143.21V109.401C1139.74 115.308 1134.87 118.262 1128.62 118.262C1125.26 118.262 1122.6 117.277 1120.63 115.308C1118.77 113.223 1117.85 110.328 1117.85 106.621C1117.85 101.988 1119.35 98.5709 1122.36 96.3701C1124.63 94.7748 1127.72 93.7577 1131.63 93.3188Z" fill="url(#paint12_linear_135_31)"/>
<path d="M1131.63 93.3188C1133.11 93.1523 1134.72 93.069 1136.44 93.069H1143.21V109.401C1139.74 115.308 1134.87 118.262 1128.62 118.262C1125.26 118.262 1122.6 117.277 1120.63 115.308C1118.77 113.223 1117.85 110.328 1117.85 106.621C1117.85 101.988 1119.35 98.5709 1122.36 96.3701C1124.63 94.7748 1127.72 93.7577 1131.63 93.3188Z" fill="#C8102E" fill-opacity="0.33"/>
<path fill-rule="evenodd" clip-rule="evenodd" d="M1095.24 76.3217L1095.15 76.3818L1095.04 76.4636L1094.93 76.5399C1084.14 84.2943 1078.99 95.6976 1078.99 109.053C1078.99 120.313 1082.68 130.392 1090.63 138.181C1098.67 146.042 1109.1 149.478 1120.63 149.478C1130.92 149.478 1140.1 146.882 1147.6 141.483C1148.65 142.3 1149.77 143.056 1150.95 143.742L1151.07 143.813L1151.2 143.881C1156.66 146.876 1163.02 148.371 1169.72 148.918L1178.89 149.667L1190.82 112.445L1181.74 109.103C1181.73 108.831 1181.73 108.525 1181.73 108.185V72.3934C1181.73 59.3353 1177.98 47.5305 1168.62 39.2293C1159.4 31.0514 1146.33 28.1466 1131.92 28.1466C1125.86 28.1466 1119.46 28.8183 1112.75 30.0848L1112.73 30.0886L1112.71 30.0924C1106.02 31.3783 1099.47 33.242 1093.06 35.678L1082.55 39.6712L1095.24 76.3217ZM1114.89 41.467C1121.03 40.3087 1126.71 39.7295 1131.92 39.7295C1145.13 39.7295 1154.8 42.4515 1160.94 47.8955C1167.07 53.3395 1170.14 61.5055 1170.14 72.3934V108.185C1170.14 111.66 1170.61 114.208 1171.53 115.829C1172.58 117.451 1174.2 118.667 1176.4 119.478L1170.67 137.374C1164.99 136.91 1160.36 135.694 1156.77 133.725C1156.67 133.669 1156.57 133.613 1156.48 133.555C1156.33 133.465 1156.18 133.372 1156.04 133.278C1152.8 131.188 1150.26 128.094 1148.43 123.995C1146.08 127.601 1143.25 130.505 1139.92 132.708C1134.7 136.166 1128.27 137.895 1120.63 137.895C1111.48 137.895 1104.18 135.231 1098.74 129.903C1093.29 124.575 1090.57 117.625 1090.57 109.053C1090.57 98.9763 1094.28 91.2736 1101.69 85.9455C1109.1 80.6173 1119.82 77.9532 1133.83 77.9532H1143.21V73.9571C1143.21 70.8692 1142.84 68.3402 1142.1 66.3703C1141.53 64.8673 1140.74 63.6897 1139.74 62.8375C1137.42 60.7526 1133.37 59.7101 1127.58 59.7101C1124.57 59.7101 1120.92 60.1734 1116.63 61.1001C1112.35 61.9109 1107.94 63.0692 1103.43 64.5749L1097.17 46.5056C1099.19 45.737 1101.23 45.0319 1103.28 44.3905C1104.92 43.8797 1106.56 43.4092 1108.21 42.979C1110.42 42.4026 1112.65 41.8986 1114.89 41.467Z" fill="url(#paint13_linear_135_31)"/>
<path fill-rule="evenodd" clip-rule="evenodd" d="M1095.24 76.3217L1095.15 76.3818L1095.04 76.4636L1094.93 76.5399C1084.14 84.2943 1078.99 95.6976 1078.99 109.053C1078.99 120.313 1082.68 130.392 1090.63 138.181C1098.67 146.042 1109.1 149.478 1120.63 149.478C1130.92 149.478 1140.1 146.882 1147.6 141.483C1148.65 142.3 1149.77 143.056 1150.95 143.742L1151.07 143.813L1151.2 143.881C1156.66 146.876 1163.02 148.371 1169.72 148.918L1178.89 149.667L1190.82 112.445L1181.74 109.103C1181.73 108.831 1181.73 108.525 1181.73 108.185V72.3934C1181.73 59.3353 1177.98 47.5305 1168.62 39.2293C1159.4 31.0514 1146.33 28.1466 1131.92 28.1466C1125.86 28.1466 1119.46 28.8183 1112.75 30.0848L1112.73 30.0886L1112.71 30.0924C1106.02 31.3783 1099.47 33.242 1093.06 35.678L1082.55 39.6712L1095.24 76.3217ZM1114.89 41.467C1121.03 40.3087 1126.71 39.7295 1131.92 39.7295C1145.13 39.7295 1154.8 42.4515 1160.94 47.8955C1167.07 53.3395 1170.14 61.5055 1170.14 72.3934V108.185C1170.14 111.66 1170.61 114.208 1171.53 115.829C1172.58 117.451 1174.2 118.667 1176.4 119.478L1170.67 137.374C1164.99 136.91 1160.36 135.694 1156.77 133.725C1156.67 133.669 1156.57 133.613 1156.48 133.555C1156.33 133.465 1156.18 133.372 1156.04 133.278C1152.8 131.188 1150.26 128.094 1148.43 123.995C1146.08 127.601 1143.25 130.505 1139.92 132.708C1134.7 136.166 1128.27 137.895 1120.63 137.895C1111.48 137.895 1104.18 135.231 1098.74 129.903C1093.29 124.575 1090.57 117.625 1090.57 109.053C1090.57 98.9763 1094.28 91.2736 1101.69 85.9455C1109.1 80.6173 1119.82 77.9532 1133.83 77.9532H1143.21V73.9571C1143.21 70.8692 1142.84 68.3402 1142.1 66.3703C1141.53 64.8673 1140.74 63.6897 1139.74 62.8375C1137.42 60.7526 1133.37 59.7101 1127.58 59.7101C1124.57 59.7101 1120.92 60.1734 1116.63 61.1001C1112.35 61.9109 1107.94 63.0692 1103.43 64.5749L1097.17 46.5056C1099.19 45.737 1101.23 45.0319 1103.28 44.3905C1104.92 43.8797 1106.56 43.4092 1108.21 42.979C1110.42 42.4026 1112.65 41.8986 1114.89 41.467Z" fill="#C8102E" fill-opacity="0.33"/>
<path fill-rule="evenodd" clip-rule="evenodd" d="M1250.02 171.765C1239.3 180.073 1225.59 184.178 1209.94 185.077L1199.42 185.68L1197.15 170.848H241.337V159.266H1195.37L1193.08 144.286L1204.81 142.743C1210 142.06 1213.66 141.138 1216.15 140.222L1182.86 31.1002H1236.99L1244.71 66.0112L1253.15 31.1002H1306.42L1272.28 138.552L1272.27 138.582C1269.88 146.288 1266.54 153.231 1262.19 159.266H1306.39V170.848H1251.2C1250.81 171.159 1250.42 171.464 1250.02 171.765ZM1225.78 148.32C1226.6 147.784 1227.4 147.185 1228.16 146.524L1229.68 145.294L1226.65 134.941L1198.5 42.6832H1227.69L1244.19 117.393L1262.26 42.6832H1290.58L1261.22 135.115C1257.52 147.046 1251.43 156.196 1242.98 162.567C1234.64 169.053 1223.4 172.702 1209.27 173.513L1206.32 154.227C1207.75 154.038 1209.13 153.828 1210.44 153.596C1217.17 152.406 1222.29 150.647 1225.78 148.32Z" fill="url(#paint14_linear_135_31)"/>
<path fill-rule="evenodd" clip-rule="evenodd" d="M1250.02 171.765C1239.3 180.073 1225.59 184.178 1209.94 185.077L1199.42 185.68L1197.15 170.848H241.337V159.266H1195.37L1193.08 144.286L1204.81 142.743C1210 142.06 1213.66 141.138 1216.15 140.222L1182.86 31.1002H1236.99L1244.71 66.0112L1253.15 31.1002H1306.42L1272.28 138.552L1272.27 138.582C1269.88 146.288 1266.54 153.231 1262.19 159.266H1306.39V170.848H1251.2C1250.81 171.159 1250.42 171.464 1250.02 171.765ZM1225.78 148.32C1226.6 147.784 1227.4 147.185 1228.16 146.524L1229.68 145.294L1226.65 134.941L1198.5 42.6832H1227.69L1244.19 117.393L1262.26 42.6832H1290.58L1261.22 135.115C1257.52 147.046 1251.43 156.196 1242.98 162.567C1234.64 169.053 1223.4 172.702 1209.27 173.513L1206.32 154.227C1207.75 154.038 1209.13 153.828 1210.44 153.596C1217.17 152.406 1222.29 150.647 1225.78 148.32Z" fill="#C8102E" fill-opacity="0.33"/>
<defs>
<linearGradient id="paint0_linear_135_31" x1="0" y1="0" x2="1274.58" y2="200.219" gradientUnits="userSpaceOnUse">
<stop stop-color="#FFADAD"/>
<stop offset="0.142857" stop-color="#FFD6A5"/>
<stop offset="0.285714" stop-color="#FDFFB6"/>
<stop offset="0.428571" stop-color="#CAFFBF"/>
<stop offset="0.571429" stop-color="#9BF6FF"/>
<stop offset="0.714286" stop-color="#A0C4FF"/>
<stop offset="0.857143" stop-color="#BDB2FF"/>
<stop offset="1" stop-color="#FFC6FF"/>
</linearGradient>
<linearGradient id="paint1_linear_135_31" x1="0" y1="0" x2="1274.58" y2="200.219" gradientUnits="userSpaceOnUse">
<stop stop-color="#FFADAD"/>
<stop offset="0.142857" stop-color="#FFD6A5"/>
<stop offset="0.285714" stop-color="#FDFFB6"/>
<stop offset="0.428571" stop-color="#CAFFBF"/>
<stop offset="0.571429" stop-color="#9BF6FF"/>
<stop offset="0.714286" stop-color="#A0C4FF"/>
<stop offset="0.857143" stop-color="#BDB2FF"/>
<stop offset="1" stop-color="#FFC6FF"/>
</linearGradient>
<linearGradient id="paint2_linear_135_31" x1="0" y1="0" x2="1274.58" y2="200.219" gradientUnits="userSpaceOnUse">
<stop stop-color="#FFADAD"/>
<stop offset="0.142857" stop-color="#FFD6A5"/>
<stop offset="0.285714" stop-color="#FDFFB6"/>
<stop offset="0.428571" stop-color="#CAFFBF"/>
<stop offset="0.571429" stop-color="#9BF6FF"/>
<stop offset="0.714286" stop-color="#A0C4FF"/>
<stop offset="0.857143" stop-color="#BDB2FF"/>
<stop offset="1" stop-color="#FFC6FF"/>
</linearGradient>
<linearGradient id="paint3_linear_135_31" x1="0" y1="0" x2="1274.58" y2="200.219" gradientUnits="userSpaceOnUse">
<stop stop-color="#FFADAD"/>
<stop offset="0.142857" stop-color="#FFD6A5"/>
<stop offset="0.285714" stop-color="#FDFFB6"/>
<stop offset="0.428571" stop-color="#CAFFBF"/>
<stop offset="0.571429" stop-color="#9BF6FF"/>
<stop offset="0.714286" stop-color="#A0C4FF"/>
<stop offset="0.857143" stop-color="#BDB2FF"/>
<stop offset="1" stop-color="#FFC6FF"/>
</linearGradient>
<linearGradient id="paint4_linear_135_31" x1="0" y1="0" x2="1274.58" y2="200.219" gradientUnits="userSpaceOnUse">
<stop stop-color="#FFADAD"/>
<stop offset="0.142857" stop-color="#FFD6A5"/>
<stop offset="0.285714" stop-color="#FDFFB6"/>
<stop offset="0.428571" stop-color="#CAFFBF"/>
<stop offset="0.571429" stop-color="#9BF6FF"/>
<stop offset="0.714286" stop-color="#A0C4FF"/>
<stop offset="0.857143" stop-color="#BDB2FF"/>
<stop offset="1" stop-color="#FFC6FF"/>
</linearGradient>
<linearGradient id="paint5_linear_135_31" x1="0" y1="0" x2="1274.58" y2="200.219" gradientUnits="userSpaceOnUse">
<stop stop-color="#FFADAD"/>
<stop offset="0.142857" stop-color="#FFD6A5"/>
<stop offset="0.285714" stop-color="#FDFFB6"/>
<stop offset="0.428571" stop-color="#CAFFBF"/>
<stop offset="0.571429" stop-color="#9BF6FF"/>
<stop offset="0.714286" stop-color="#A0C4FF"/>
<stop offset="0.857143" stop-color="#BDB2FF"/>
<stop offset="1" stop-color="#FFC6FF"/>
</linearGradient>
<linearGradient id="paint6_linear_135_31" x1="0" y1="0" x2="1274.58" y2="200.219" gradientUnits="userSpaceOnUse">
<stop stop-color="#FFADAD"/>
<stop offset="0.142857" stop-color="#FFD6A5"/>
<stop offset="0.285714" stop-color="#FDFFB6"/>
<stop offset="0.428571" stop-color="#CAFFBF"/>
<stop offset="0.571429" stop-color="#9BF6FF"/>
<stop offset="0.714286" stop-color="#A0C4FF"/>
<stop offset="0.857143" stop-color="#BDB2FF"/>
<stop offset="1" stop-color="#FFC6FF"/>
</linearGradient>
<linearGradient id="paint7_linear_135_31" x1="0" y1="0" x2="1274.58" y2="200.219" gradientUnits="userSpaceOnUse">
<stop stop-color="#FFADAD"/>
<stop offset="0.142857" stop-color="#FFD6A5"/>
<stop offset="0.285714" stop-color="#FDFFB6"/>
<stop offset="0.428571" stop-color="#CAFFBF"/>
<stop offset="0.571429" stop-color="#9BF6FF"/>
<stop offset="0.714286" stop-color="#A0C4FF"/>
<stop offset="0.857143" stop-color="#BDB2FF"/>
<stop offset="1" stop-color="#FFC6FF"/>
</linearGradient>
<linearGradient id="paint8_linear_135_31" x1="0" y1="0" x2="1274.58" y2="200.219" gradientUnits="userSpaceOnUse">
<stop stop-color="#FFADAD"/>
<stop offset="0.142857" stop-color="#FFD6A5"/>
<stop offset="0.285714" stop-color="#FDFFB6"/>
<stop offset="0.428571" stop-color="#CAFFBF"/>
<stop offset="0.571429" stop-color="#9BF6FF"/>
<stop offset="0.714286" stop-color="#A0C4FF"/>
<stop offset="0.857143" stop-color="#BDB2FF"/>
<stop offset="1" stop-color="#FFC6FF"/>
</linearGradient>
<linearGradient id="paint9_linear_135_31" x1="0" y1="0" x2="1274.58" y2="200.219" gradientUnits="userSpaceOnUse">
<stop stop-color="#FFADAD"/>
<stop offset="0.142857" stop-color="#FFD6A5"/>
<stop offset="0.285714" stop-color="#FDFFB6"/>
<stop offset="0.428571" stop-color="#CAFFBF"/>
<stop offset="0.571429" stop-color="#9BF6FF"/>
<stop offset="0.714286" stop-color="#A0C4FF"/>
<stop offset="0.857143" stop-color="#BDB2FF"/>
<stop offset="1" stop-color="#FFC6FF"/>
</linearGradient>
<linearGradient id="paint10_linear_135_31" x1="0" y1="0" x2="1274.58" y2="200.219" gradientUnits="userSpaceOnUse">
<stop stop-color="#FFADAD"/>
<stop offset="0.142857" stop-color="#FFD6A5"/>
<stop offset="0.285714" stop-color="#FDFFB6"/>
<stop offset="0.428571" stop-color="#CAFFBF"/>
<stop offset="0.571429" stop-color="#9BF6FF"/>
<stop offset="0.714286" stop-color="#A0C4FF"/>
<stop offset="0.857143" stop-color="#BDB2FF"/>
<stop offset="1" stop-color="#FFC6FF"/>
</linearGradient>
<linearGradient id="paint11_linear_135_31" x1="0" y1="0" x2="1274.58" y2="200.219" gradientUnits="userSpaceOnUse">
<stop stop-color="#FFADAD"/>
<stop offset="0.142857" stop-color="#FFD6A5"/>
<stop offset="0.285714" stop-color="#FDFFB6"/>
<stop offset="0.428571" stop-color="#CAFFBF"/>
<stop offset="0.571429" stop-color="#9BF6FF"/>
<stop offset="0.714286" stop-color="#A0C4FF"/>
<stop offset="0.857143" stop-color="#BDB2FF"/>
<stop offset="1" stop-color="#FFC6FF"/>
</linearGradient>
<linearGradient id="paint12_linear_135_31" x1="0" y1="0" x2="1274.58" y2="200.219" gradientUnits="userSpaceOnUse">
<stop stop-color="#FFADAD"/>
<stop offset="0.142857" stop-color="#FFD6A5"/>
<stop offset="0.285714" stop-color="#FDFFB6"/>
<stop offset="0.428571" stop-color="#CAFFBF"/>
<stop offset="0.571429" stop-color="#9BF6FF"/>
<stop offset="0.714286" stop-color="#A0C4FF"/>
<stop offset="0.857143" stop-color="#BDB2FF"/>
<stop offset="1" stop-color="#FFC6FF"/>
</linearGradient>
<linearGradient id="paint13_linear_135_31" x1="0" y1="0" x2="1274.58" y2="200.219" gradientUnits="userSpaceOnUse">
<stop stop-color="#FFADAD"/>
<stop offset="0.142857" stop-color="#FFD6A5"/>
<stop offset="0.285714" stop-color="#FDFFB6"/>
<stop offset="0.428571" stop-color="#CAFFBF"/>
<stop offset="0.571429" stop-color="#9BF6FF"/>
<stop offset="0.714286" stop-color="#A0C4FF"/>
<stop offset="0.857143" stop-color="#BDB2FF"/>
<stop offset="1" stop-color="#FFC6FF"/>
</linearGradient>
<linearGradient id="paint14_linear_135_31" x1="0" y1="0" x2="1274.58" y2="200.219" gradientUnits="userSpaceOnUse">
<stop stop-color="#FFADAD"/>
<stop offset="0.142857" stop-color="#FFD6A5"/>
<stop offset="0.285714" stop-color="#FDFFB6"/>
<stop offset="0.428571" stop-color="#CAFFBF"/>
<stop offset="0.571429" stop-color="#9BF6FF"/>
<stop offset="0.714286" stop-color="#A0C4FF"/>
<stop offset="0.857143" stop-color="#BDB2FF"/>
<stop offset="1" stop-color="#FFC6FF"/>
</linearGradient>
</defs>
</svg>
