<svg width="202" height="186" viewBox="0 0 202 186" fill="none" xmlns="http://www.w3.org/2000/svg">
<path fill-rule="evenodd" clip-rule="evenodd" d="M134.225 22.3708C134.225 26.4455 133.135 30.2657 131.232 33.5562H178.966C191.321 33.5562 201.337 43.5719 201.337 55.927V163.307C201.337 175.662 191.321 185.678 178.966 185.678H22.3708C10.0157 185.678 0 175.662 0 163.307V55.927C0 43.5719 10.0157 33.5562 22.3708 33.5562H70.1052C68.2018 30.2657 67.1124 26.4455 67.1124 22.3708C67.1124 10.0157 77.1281 0 89.4832 0H111.854C124.209 0 134.225 10.0157 134.225 22.3708ZM89.4832 33.5562C83.3056 33.5562 78.2978 28.5483 78.2978 22.3708C78.2978 16.1933 83.3056 11.1854 89.4832 11.1854H111.854C118.031 11.1854 123.039 16.1933 123.039 22.3708C123.039 28.5483 118.031 33.5562 111.854 33.5562H89.4832ZM178.966 44.7416H162.188V174.492H178.966C185.144 174.492 190.152 169.484 190.152 163.307V55.927C190.152 49.7495 185.144 44.7416 178.966 44.7416ZM50.3343 44.7416H151.003V174.492H50.3343V44.7416ZM22.3708 174.492H39.1489V44.7416H22.3708C16.1933 44.7416 11.1854 49.7495 11.1854 55.927V163.307C11.1854 169.484 16.1933 174.492 22.3708 174.492Z" fill="url(#paint0_linear_83_40)"/>
<path fill-rule="evenodd" clip-rule="evenodd" d="M134.225 22.3708C134.225 26.4455 133.135 30.2657 131.232 33.5562H178.966C191.321 33.5562 201.337 43.5719 201.337 55.927V163.307C201.337 175.662 191.321 185.678 178.966 185.678H22.3708C10.0157 185.678 0 175.662 0 163.307V55.927C0 43.5719 10.0157 33.5562 22.3708 33.5562H70.1052C68.2018 30.2657 67.1124 26.4455 67.1124 22.3708C67.1124 10.0157 77.1281 0 89.4832 0H111.854C124.209 0 134.225 10.0157 134.225 22.3708ZM89.4832 33.5562C83.3056 33.5562 78.2978 28.5483 78.2978 22.3708C78.2978 16.1933 83.3056 11.1854 89.4832 11.1854H111.854C118.031 11.1854 123.039 16.1933 123.039 22.3708C123.039 28.5483 118.031 33.5562 111.854 33.5562H89.4832ZM178.966 44.7416H162.188V174.492H178.966C185.144 174.492 190.152 169.484 190.152 163.307V55.927C190.152 49.7495 185.144 44.7416 178.966 44.7416ZM50.3343 44.7416H151.003V174.492H50.3343V44.7416ZM22.3708 174.492H39.1489V44.7416H22.3708C16.1933 44.7416 11.1854 49.7495 11.1854 55.927V163.307C11.1854 169.484 16.1933 174.492 22.3708 174.492Z" fill="#C8102E" fill-opacity="0.33"/>
<defs>
<linearGradient id="paint0_linear_83_40" x1="0" y1="0" x2="1274.58" y2="200.219" gradientUnits="userSpaceOnUse">
<stop stop-color="#FFADAD"/>
<stop offset="0.142857" stop-color="#FFD6A5"/>
<stop offset="0.285714" stop-color="#FDFFB6"/>
<stop offset="0.428571" stop-color="#CAFFBF"/>
<stop offset="0.571429" stop-color="#9BF6FF"/>
<stop offset="0.714286" stop-color="#A0C4FF"/>
<stop offset="0.857143" stop-color="#BDB2FF"/>
<stop offset="1" stop-color="#FFC6FF"/>
</linearGradient>
</defs>
</svg>
