<?xml version="1.0" encoding="UTF-8"?>
<!DOCTYPE svg PUBLIC "-//W3C//DTD SVG 1.1//EN" "http://www.w3.org/Graphics/SVG/1.1/DTD/svg11.dtd">
<!-- Creator: CorelDRAW X7 -->
<svg xmlns="http://www.w3.org/2000/svg" xml:space="preserve" width="1001px" height="274px" version="1.1" style="shape-rendering:geometricPrecision; text-rendering:geometricPrecision; image-rendering:optimizeQuality; fill-rule:evenodd; clip-rule:evenodd" viewBox="0 0 100100 27397" xmlns:xlink="http://www.w3.org/1999/xlink">
 <defs>
  <style type="text/css">
   <![CDATA[
    .fil0 {fill:black;fill-rule:nonzero}
   ]]>
  </style>
 </defs>
 <g id="Layer_x0020_1">
  <metadata id="CorelCorpID_0Corel-Layer"/>
  <path class="fil0" d="M24472 1713l-630 7243 -1469 0 0 -3754c-1685,-1995 -4120,-3030 -7031,-3030 -5701,0 -9573,3968 -9573,11334 0,7366 3872,11333 9573,11333 2506,0 5132,-442 7703,-1822l1020 1749c-2071,1652 -5985,2631 -8723,2631 -9135,0 -15342,-4795 -15342,-13698 0,-8903 6207,-13699 15342,-13699 3583,0 6235,649 9130,1713zm72919 6632c1075,0 1990,220 2709,611l-495 5692 -1469 0c-505,-1386 -1437,-1976 -2752,-1976 -2073,0 -3286,1467 -3286,5200l0 7445 3286 0 0 1469 -10867 0 0 -1469 2911 0 0 -14892 -2911 0 0 -1469 7581 -611 0 4191c805,-2192 2219,-4191 5293,-4191zm-32671 2080l-1807 0 -7020 16361 -3237 0 -6367 -16361 -1843 0 0 -1469 9833 0 0 1469 -2731 0 4193 11239 4430 -11239 -2732 0 0 -1469 7281 0 0 1469zm-29954 -2080c5254,0 8346,2158 8932,7527l-5113 0c-318,-3877 -1635,-5447 -3819,-5447 -2185,0 -3502,1570 -3819,5447l-5114 0c586,-5369 3678,-7527 8933,-7527zm8932 11526c-586,5368 -3678,7526 -8932,7526 -5255,0 -8347,-2158 -8933,-7526l5114 0c318,3875 1635,5443 3819,5443 2184,0 3501,-1568 3818,-5443l5114 0zm30160 -11526c5324,0 8277,2527 8451,8915 0,2 -11021,1319 -12065,1444 243,3188 1919,5951 5652,5965 1816,6 3820,-849 4871,-1619l1001 1716c-2088,1866 -4992,2631 -7910,2631 -5489,0 -8458,-4111 -8458,-9526 0,-6839 4395,-9526 8458,-9526zm3552 7240c-335,-3668 -1558,-5160 -3552,-5160 -2142,0 -3394,1722 -3611,6016l7163 -856z"/>
 </g>
</svg>